<?xml version="1.0" encoding="utf-8"?>
<!-- Generator: Adobe Illustrator 19.0.0, SVG Export Plug-In . SVG Version: 6.00 Build 0)  -->
<svg version="1.1" id="Layer_1" xmlns="http://www.w3.org/2000/svg" xmlns:xlink="http://www.w3.org/1999/xlink" x="0px" y="0px"
	 viewBox="1400 -200 3600 1000" style="enable-background:new 1400 -200 3600 1000;" xml:space="preserve">
<style type="text/css">
	.st0{fill:#4F3183;}
	.st1{fill:#FDB130;}
	.st2{fill:none;stroke:#2A2A2A;stroke-width:8;stroke-linecap:round;stroke-linejoin:round;stroke-miterlimit:10;}
	.st3{opacity:0.12;}
	.st4{fill:#515151;}
	.st5{fill:none;stroke:#2A2A2A;stroke-width:10;stroke-linecap:round;stroke-linejoin:round;stroke-miterlimit:10;}
	.st6{fill:#492D78;}
	.st7{fill:#DF358D;}
	.st8{opacity:0.31;fill:#DF358D;enable-background:new    ;}
	.st9{opacity:0.31;fill:#D62879;enable-background:new    ;}
	.st10{fill:#D62879;}
	.st11{fill:#D62879;stroke:#D62879;stroke-width:10;stroke-miterlimit:10;}
	.st12{fill:#F9A991;}
	.st13{fill:#F79A81;}
	.st14{fill:none;stroke:#FFFFFF;stroke-width:8;stroke-linecap:round;stroke-linejoin:round;stroke-miterlimit:10;}
	.st15{opacity:0.26;fill:#F9A991;enable-background:new    ;}
	.st16{fill:#2A2A2A;}
	.st17{fill:#FFFFFF;}
	.st18{fill:#8E4B42;}
	.st19{fill:none;stroke:#773C35;stroke-width:6;stroke-linecap:round;stroke-linejoin:round;stroke-miterlimit:10;}
	.st20{fill:none;stroke:#452B73;stroke-width:10;stroke-linecap:round;stroke-linejoin:round;stroke-miterlimit:10;}
	.st21{fill:none;stroke:#452B73;stroke-width:4;stroke-linecap:round;stroke-linejoin:round;stroke-miterlimit:10;}
	.st22{fill:#452B73;}
	.st23{fill:none;stroke:#452B73;stroke-width:8;stroke-linecap:round;stroke-linejoin:round;stroke-miterlimit:10;}
	.st24{fill:#CDC5C3;}
	.st25{opacity:0.7;fill:#FFF7F5;enable-background:new    ;}
	.st26{fill:#AFABAA;}
	.st27{fill:none;stroke:#2A2A2A;stroke-width:6;stroke-linecap:round;stroke-linejoin:round;stroke-miterlimit:10;}
	.st28{fill:#AAD543;}
	.st29{fill:#8BC228;}
	.st30{fill:#E3F874;}
	.st31{fill:none;stroke:#FCFCFC;stroke-width:8;stroke-linecap:round;stroke-linejoin:round;stroke-miterlimit:10;}
	.st32{fill:none;stroke:#2A2A2A;stroke-width:4;stroke-linecap:round;stroke-linejoin:round;stroke-miterlimit:10;}
	.st33{fill:#482D78;}
	.st34{fill:#6F6C75;}
	.st35{fill:#D3D3D3;}
	.st36{fill:#E72153;}
	.st37{fill:#FFC86B;}
	.st38{fill:#E8AD56;}
</style>
<g>
	<g id="Layer_1_1_">
		<rect id="XMLID_1591_" x="1418.6" y="-200" class="st0" width="3600" height="795.5"/>
		<rect id="XMLID_1502_" x="1418.6" y="595.5" class="st1" width="3600" height="204.5"/>
		<line id="XMLID_1478_" class="st2" x1="3228.9" y1="637.4" x2="3214.5" y2="637.4"/>
	</g>
	<g id="Layer_4">
	</g>
	<g id="pat">
	</g>
	<g id="user">
	</g>
	<g id="Layer_5">
		<g id="XMLID_299_">
			<g id="XMLID_1583_" class="st3">
				<rect id="XMLID_1590_" x="3255.8" y="246.7" class="st4" width="78.6" height="39.3"/>
				<rect id="XMLID_1589_" x="3255.8" y="246.7" class="st5" width="78.6" height="39.3"/>
				<rect id="XMLID_1588_" x="3334.4" y="246.7" class="st5" width="78.6" height="39.3"/>
				<rect id="XMLID_1587_" x="3295" y="287.1" class="st5" width="78.6" height="39.3"/>
				<rect id="XMLID_1586_" x="3295" y="207.4" class="st5" width="78.6" height="39.3"/>
				<rect id="XMLID_1585_" x="3370.8" y="361.1" class="st6" width="78.6" height="39.3"/>
				<rect id="XMLID_1584_" x="3370.8" y="361.1" class="st5" width="78.6" height="39.3"/>
			</g>
			<g id="XMLID_1503_">
				<g id="XMLID_1560_">
					<ellipse id="XMLID_1582_" class="st7" cx="3191.8" cy="359" rx="95.3" ry="46.6"/>
					<path id="XMLID_1581_" class="st8" d="M3253.5,338.8c0,18-27.9,32.6-62.4,32.6c-34.4,0-62.4-14.6-62.4-32.6"/>
					<path id="XMLID_1580_" class="st9" d="M3191.8,336.4c19.8,0,38.5-4.8,55-13.4c-15.5-5.4-34.5-8.5-55-8.5s-39.5,3.2-55,8.5
						C3153.3,331.5,3171.9,336.4,3191.8,336.4z"/>
					<ellipse id="XMLID_1579_" class="st2" cx="3191.8" cy="359" rx="95.3" ry="46.6"/>
					<path id="XMLID_1578_" class="st7" d="M3331.4,495.4H3052v-60.7c0-28.6,18.3-54.1,45.4-63.2l12.6-4.3
						c53-17.9,110.4-17.9,163.4,0l12.6,4.3c27.1,9.2,45.4,34.6,45.4,63.2V495.4z"/>
					<path id="XMLID_1577_" class="st10" d="M3286.1,371.4l-12.6-4.3c-53-17.9-110.4-17.9-163.4,0l-12.6,4.3
						c-27.1,9.2-45.4,34.6-45.4,63.2v10.7c0-28.6,18.3-54.1,45.4-63.2l12.6-4.3c53-17.9,110.4-17.9,163.4,0l12.6,4.3
						c27.1,9.2,45.4,34.6,45.4,63.2v-10.7C3331.4,406,3313.3,380.6,3286.1,371.4z"/>
					<path id="XMLID_1576_" class="st2" d="M3331.4,495.4H3052v-60.7c0-28.6,18.3-54.1,45.4-63.2l12.6-4.3
						c53-17.9,110.4-17.9,163.4,0l12.6,4.3c27.1,9.2,45.4,34.6,45.4,63.2V495.4z"/>
					<path id="XMLID_1575_" class="st11" d="M3143.9,364.6v21.1c0,16,13.9,28.9,31.1,28.9h33.6c17.2,0,31.1-12.9,31.1-28.9v-21.1"/>
					<g id="XMLID_1572_">
						<path id="XMLID_1574_" class="st7" d="M3133.6,337.2c0,0,10.2,7.5,10.2,18.4v21.1c0,16,13.9,28.9,31.1,28.9h33.6
							c17.2,0,31.1-12.9,31.1-28.9v-21.1c0-10.9,10.2-18.4,10.2-18.4H3133.6z"/>
						<path id="XMLID_1573_" class="st2" d="M3133.6,337.2c0,0,10.2,7.5,10.2,18.4v21.1c0,16,13.9,28.9,31.1,28.9h33.6
							c17.2,0,31.1-12.9,31.1-28.9v-21.1c0-10.9,10.2-18.4,10.2-18.4"/>
					</g>
					<path id="XMLID_1569_" class="st12" d="M3191.8,381.4L3191.8,381.4c-13.3,0-24-10.7-24-24V304h48v53.4
						C3215.8,370.6,3205,381.4,3191.8,381.4z"/>
					<path id="XMLID_1566_" class="st13" d="M3167.8,334c7.8,1.6,15.8,2.4,24,2.4s16.2-0.8,24-2.4v-28h-48V334z"/>
					<path id="XMLID_1565_" class="st2" d="M3191.8,381.4L3191.8,381.4c-13.3,0-24-10.7-24-24V304h48v53.4
						C3215.8,370.6,3205,381.4,3191.8,381.4z"/>
					<g id="XMLID_1562_">
						<line id="XMLID_1564_" class="st14" x1="3162.3" y1="387.6" x2="3162.3" y2="428.3"/>
						<line id="XMLID_1563_" class="st14" x1="3221.3" y1="387.6" x2="3221.3" y2="445.4"/>
					</g>
					<line id="XMLID_1561_" class="st2" x1="3191.8" y1="409.5" x2="3191.8" y2="495.4"/>
				</g>
				<g id="XMLID_1504_">
					<g id="XMLID_1505_">
						<g id="XMLID_1534_">
							<path id="XMLID_1557_" class="st12" d="M3191.8,324.4L3191.8,324.4c-60.8,0-110-49.2-110-110V102.7h220v111.6
								C3301.8,275.1,3252.5,324.4,3191.8,324.4z"/>
							<path id="XMLID_1554_" class="st13" d="M3301.8,199.2v-96.5h-220v96.5l0.4-41.2c1.7-6,24.2-22.5,38.8-29.3
								c18.6,11.2,39.6,16.9,62.5,16.9c26,0,49.5-7.4,64.6-15.1c7.4,6.9,25.8,20.4,50.7,22.6L3301.8,199.2z"/>
							<path id="XMLID_1551_" class="st13" d="M3191.8,310.2L3191.8,310.2c-60.8,0-110-49.2-110-110v14.1c0,60.8,49.2,110,110,110
								l0,0c60.8,0,110-49.2,110-110v-14.1C3301.8,261,3252.5,310.2,3191.8,310.2z"/>
							<path id="XMLID_1548_" class="st15" d="M3208.3,221.9c0,4.3-5.4,7.7-16.5,7.7s-16.5-3.5-16.5-7.7c0,0,11.8,1.9,15.9,1.9
								C3195.3,223.8,3208.3,221.9,3208.3,221.9z"/>
							<path id="XMLID_1547_" class="st2" d="M3208.3,223.9c0,4.3-5.4,7.7-16.5,7.7s-16.5-3.5-16.5-7.7"/>
							<path id="XMLID_1546_" class="st2" d="M3191.8,324.4L3191.8,324.4c-60.8,0-110-49.2-110-110V102.7h220v111.6
								C3301.8,275.1,3252.5,324.4,3191.8,324.4z"/>
							<g id="XMLID_1539_">
								<g id="XMLID_1543_">
									<path id="XMLID_1545_" class="st2" d="M3149.9,171.9c-5-1.1-10.7-1.3-16.7-0.4s-11.4,2.9-15.8,5.4"/>
									<circle id="XMLID_1544_" class="st16" cx="3142.9" cy="195.4" r="9"/>
								</g>
								<g id="XMLID_1540_">
									<path id="XMLID_1542_" class="st2" d="M3233.8,171.9c5-1.1,10.7-1.3,16.7-0.4s11.4,2.9,15.8,5.4"/>
									<circle id="XMLID_1541_" class="st16" cx="3240.6" cy="195.4" r="9"/>
								</g>
							</g>
							<g id="XMLID_1535_">
								<path id="XMLID_1538_" class="st17" d="M3221.3,252.5c0,15.1-13.2,27.3-29.5,27.3s-29.5-12.2-29.5-27.3L3221.3,252.5
									L3221.3,252.5z"/>
								<path id="XMLID_1537_" class="st2" d="M3221.3,252.5c0,15.1-13.2,27.3-29.5,27.3s-29.5-12.2-29.5-27.3L3221.3,252.5
									L3221.3,252.5z"/>
								<line id="XMLID_1536_" class="st2" x1="3184.5" y1="294.9" x2="3199" y2="294.9"/>
							</g>
						</g>
						<g id="XMLID_1532_">
							<path id="XMLID_1533_" class="st18" d="M3066.9,106.7v78.5h14.8v-37.1c0-9.1,39-35.4,39-35.4c50.6,34.6,109.9,13.5,129.2,1.3
								c0,0,16.2,20.3,51.8,32.5v38.7h14.8v-78.5c0-24.2-14.6-54.7-47.7-59.7c-8.5-25-40.1-33-57.6-30.7c-45.8,6-61.5,9.3-93.9-6.3
								c-6.6,17.2,0,28.6,0,28.6c-13.6,2.4-15.3,4.4-35.6-0.1c0,8.2,0.4,20.5,4,25.2C3068.3,73.9,3066.9,87.6,3066.9,106.7z"/>
						</g>
						<g id="XMLID_1530_">
							<path id="XMLID_1531_" class="st2" d="M3066.9,106.7v78.5h14.8v-37.1c0-9.1,39-35.4,39-35.4c50.6,34.6,109.9,13.5,129.2,1.3
								c0,0,16.2,20.3,51.8,32.5v38.7h14.8v-78.5c0-24.2-14.6-54.7-47.7-59.7c-8.5-25-40.1-33-57.6-30.7c-45.8,6-61.5,9.3-93.9-6.3
								c-6.6,17.2,0,28.6,0,28.6c-13.6,2.4-15.3,4.4-35.6-0.1c0,8.2,0.4,20.5,4,25.2C3068.3,73.9,3066.9,87.6,3066.9,106.7z"/>
						</g>
						<g id="XMLID_1522_">
							<g id="XMLID_1525_">
								<g id="XMLID_332_">
									<path id="XMLID_333_" class="st12" d="M3081.8,214.4v-35.9h-8c-8.8,0-14,7.7-11.5,17l3.5,13.5c2,7.7,9,13.8,16.3,14.9
										C3081.9,220.7,3081.8,217.5,3081.8,214.4z"/>
								</g>
							</g>
							<g id="XMLID_1523_">
								<path id="XMLID_1524_" class="st2" d="M3081.8,214.4v-35.9h-8c-8.8,0-14,7.7-11.5,17l3.5,13.5c2,7.7,9,13.8,16.3,14.9
									C3081.9,220.7,3081.8,217.5,3081.8,214.4z"/>
							</g>
						</g>
						<g id="XMLID_1514_">
							<g id="XMLID_1517_">
								<g id="XMLID_329_">
									<path id="XMLID_330_" class="st12" d="M3301.8,214.4v-35.9h8c8.8,0,14,7.7,11.5,17l-3.5,13.5c-2,7.7-9,13.8-16.3,14.9
										C3301.5,220.7,3301.8,217.5,3301.8,214.4z"/>
								</g>
							</g>
							<g id="XMLID_1515_">
								<path id="XMLID_1516_" class="st2" d="M3301.8,214.4v-35.9h8c8.8,0,14,7.7,11.5,17l-3.5,13.5c-2,7.7-9,13.8-16.3,14.9
									C3301.5,220.7,3301.8,217.5,3301.8,214.4z"/>
							</g>
						</g>
						<g id="XMLID_1506_">
							<g id="XMLID_1512_">
								<path id="XMLID_1513_" class="st19" d="M3133.9,80.9c0,0,36.9,4.1,50.7,30.8"/>
							</g>
							<g id="XMLID_1510_">
								<path id="XMLID_1511_" class="st19" d="M3144.9,46.3c0,0,56.4,21.7,70.9,65.3"/>
							</g>
							<g id="XMLID_1508_">
								<path id="XMLID_1509_" class="st19" d="M3201.3,50.3c0,0,30.4,19.9,32.4,52.9"/>
							</g>
							<path id="XMLID_1507_" class="st19" d="M3260.1,97.7c0,0,26.9-4.3,38.6,19.1"/>
						</g>
					</g>
				</g>
			</g>
			<g id="XMLID_1492_">
				<circle id="XMLID_1500_" class="st20" cx="3456.3" cy="81.7" r="81.9"/>
				<circle id="XMLID_1496_" class="st21" cx="3456.3" cy="81.7" r="67.5"/>
				<circle id="XMLID_1495_" class="st22" cx="3456.3" cy="81.7" r="11.4"/>
				<line id="XMLID_1494_" class="st23" x1="3456.3" y1="38.4" x2="3456.3" y2="70.3"/>
				<line id="XMLID_1493_" class="st21" x1="3500.3" y1="113.3" x2="3458.9" y2="84.3"/>
			</g>
			<g id="XMLID_1481_">
				<path id="XMLID_1489_" class="st24" d="M3336.6,637.4h-289.7c-17.7,0-32-14.3-32-32V455.6c0-17.7,14.3-32,32-32h289.7
					c17.7,0,32,14.3,32,32v149.8C3368.6,623.1,3354.4,637.4,3336.6,637.4z"/>
				<path id="XMLID_1486_" class="st25" d="M3336.6,423.6h-289.7c-17.7,0-32,14.3-32,32v12.3c0-17.7,14.3-32,32-32h289.7
					c17.7,0,32,14.3,32,32v-12.3C3368.6,437.9,3354.4,423.6,3336.6,423.6z"/>
				<path id="XMLID_1483_" class="st26" d="M3014.9,595.5v9.9c0,17.7,14.3,32,32,32h289.7c17.7,0,32-14.3,32-32v-9.9H3014.9z"/>
				<path id="XMLID_1482_" class="st2" d="M3336.6,637.4h-289.7c-17.7,0-32-14.3-32-32V455.6c0-17.7,14.3-32,32-32h289.7
					c17.7,0,32,14.3,32,32v149.8C3368.6,623.1,3354.4,637.4,3336.6,637.4z"/>
			</g>
			<path id="XMLID_1480_" class="st27" d="M3199.4,526.5c-3.6-8.8,1.9-15.6-2-19.3c-3.4-3.2-10.8-1.1-15.2,2.1
				c-6.3,4.5-7.5,12-7.7,13.4c-1.7,12,7.9,25.6,19.1,26.1c7,0.3,15.1-4.5,15.5-9.2C3209.5,535,3202.5,534.4,3199.4,526.5z"/>
			<line id="XMLID_1479_" class="st2" x1="3456.3" y1="637.4" x2="3585.3" y2="637.4"/>
			<line id="XMLID_1477_" class="st2" x1="2984.6" y1="637.4" x2="3409.5" y2="637.4"/>
			<path id="XMLID_1460_" class="st28" d="M3522.4,637.4h-25.6c-13,0-23.6-10.6-23.6-23.6v-57.4c0-4.3,3.5-7.7,7.7-7.7h57.3
				c4.3,0,7.7,3.5,7.7,7.7v57.4C3545.9,626.9,3535.4,637.4,3522.4,637.4z"/>
			<path id="XMLID_1457_" class="st29" d="M3538.1,548.8h-29.4c4.3,0,7.7,3.5,7.7,7.7v57.4c0,12.4-9.6,22.5-21.7,23.5
				c0.6,0,1.2,0.1,1.9,0.1h25.6c13,0,23.6-10.6,23.6-23.6v-57.4C3545.9,552.2,3542.4,548.8,3538.1,548.8z"/>
			<path id="XMLID_1159_" class="st30" d="M3488.4,613.8v-57.4c0-4.3,3.5-7.7,7.7-7.7h-15.3c-4.3,0-7.7,3.5-7.7,7.7v57.4
				c0,13,10.6,23.6,23.6,23.6h15.3C3498.9,637.4,3488.4,626.9,3488.4,613.8z"/>
			<path id="XMLID_1158_" class="st2" d="M3522.4,637.4h-25.6c-13,0-23.6-10.6-23.6-23.6v-57.4c0-4.3,3.5-7.7,7.7-7.7h57.3
				c4.3,0,7.7,3.5,7.7,7.7v57.4C3545.9,626.9,3535.4,637.4,3522.4,637.4z"/>
			<path id="XMLID_1157_" class="st2" d="M3554.8,604.8h-8.8v-36.2h8.8c7.8,0,14.2,6.3,14.2,14.2v7.9
				C3568.9,598.4,3562.5,604.8,3554.8,604.8z"/>
			<path id="XMLID_1156_" class="st31" d="M3545.9,468.9h-54.5c-7.8,0-14.2,6.3-14.2,14.2l0,0c0,7.8,6.3,14.2,14.2,14.2h31.4
				c5.4,0,9.7,4.4,9.7,9.7l0,0c0,5.4-4.4,9.7-9.7,9.7h-4.7c-6.4,0-11.5,5.2-11.5,11.5v1.6"/>
			<line id="XMLID_1155_" class="st31" x1="3530.9" y1="449.1" x2="3560.9" y2="449.1"/>
			<line id="XMLID_1154_" class="st32" x1="3507.3" y1="563.7" x2="3533.4" y2="563.7"/>
			<g id="XMLID_1108_">
				<line id="XMLID_1153_" class="st20" x1="2753.5" y1="204.2" x2="2994.4" y2="204.2"/>
				<rect id="XMLID_1152_" x="2848" y="55.3" class="st33" width="44" height="25"/>
				<rect id="XMLID_1151_" x="2848" y="55.3" class="st20" width="44" height="25"/>
				<rect id="XMLID_1150_" x="2848" y="158.1" class="st33" width="44" height="46.1"/>
				<rect id="XMLID_1149_" x="2848" y="158.1" class="st20" width="44" height="46.1"/>
				<rect id="XMLID_1148_" x="2848" y="55.3" class="st20" width="44" height="148.9"/>
				<rect id="XMLID_1147_" x="2891.9" y="176.3" class="st34" width="28.5" height="27.9"/>
				<rect id="XMLID_1146_" x="2891.9" y="176.3" class="st33" width="28.5" height="27.9"/>
				<rect id="XMLID_1145_" x="2891.9" y="23.8" class="st20" width="28.5" height="180.4"/>
				<rect id="XMLID_1144_" x="2920.4" y="88.1" class="st20" width="34" height="116.1"/>
				<line id="XMLID_1143_" class="st21" x1="2906.3" y1="58.8" x2="2906.3" y2="138.8"/>
				<line id="XMLID_1142_" class="st21" x1="2937.4" y1="113" x2="2937.4" y2="146.5"/>
				<path id="XMLID_1141_" class="st20" d="M2764.5,178.8c0,0.4,0,0.8,0,1.2c0,10.7,6.3,19.9,15.4,24.2h22.5
					c9.1-4.2,15.4-13.5,15.4-24.2c0-0.4,0-0.8,0-1.2H2764.5z"/>
				<circle id="XMLID_1117_" class="st20" cx="2791.1" cy="161.9" r="16.9"/>
				<circle id="XMLID_1116_" class="st20" cx="2771.9" cy="138.8" r="11.4"/>
				<circle id="XMLID_1115_" class="st20" cx="2810.3" cy="145.5" r="8.7"/>
				<line id="XMLID_1114_" class="st21" x1="2771.9" y1="113" x2="2771.9" y2="127.4"/>
				<line id="XMLID_1113_" class="st21" x1="2810.3" y1="127.4" x2="2810.3" y2="137.5"/>
				<line id="XMLID_1112_" class="st21" x1="2827.3" y1="145" x2="2817" y2="145"/>
				<line id="XMLID_1111_" class="st21" x1="2746.3" y1="138.8" x2="2760.8" y2="138.8"/>
				<line id="XMLID_1110_" class="st21" x1="2753.5" y1="120.2" x2="2763.6" y2="130.4"/>
				<line id="XMLID_1109_" class="st21" x1="2755.6" y1="155.2" x2="2765.8" y2="145.1"/>
			</g>
			<line id="XMLID_1658_" class="st2" x1="2723.3" y1="637.4" x2="2732.1" y2="637.4"/>
			<line id="XMLID_1657_" class="st2" x1="2748.8" y1="637.4" x2="2966.9" y2="637.4"/>
			<g id="XMLID_1648_">
				<path id="XMLID_1656_" class="st2" d="M2954.9,637.4h-162.1c-11,0-19.8-8.9-19.8-19.8l0,0c0-11,8.9-19.8,19.8-19.8h162.1"/>
				<path id="XMLID_1655_" class="st35" d="M2792.8,597.7c-11,0-19.8,8.9-19.8,19.8l0,0c0,1.8,0.3,3.5,0.7,5.1
					c2.3-8.5,10-14.7,19.2-14.7h148.8v-10.2L2792.8,597.7L2792.8,597.7z"/>
				<path id="XMLID_1654_" class="st17" d="M2933.9,617.6c0-9,4.7-16.6,11-19v-0.8h-152.2c-11,0-19.8,8.9-19.8,19.8l0,0
					c0,11,8.9,19.8,19.8,19.8h152.2v-0.8C2938.6,634.2,2933.9,626.6,2933.9,617.6z"/>
				<path id="XMLID_1653_" class="st2" d="M2933.9,617.6c0-9,4.7-16.6,11-19v-0.8h-152.2c-11,0-19.8,8.9-19.8,19.8l0,0
					c0,11,8.9,19.8,19.8,19.8h152.2v-0.8C2938.6,634.2,2933.9,626.6,2933.9,617.6z"/>
				<line id="XMLID_1652_" class="st2" x1="2887" y1="619.6" x2="2901" y2="619.6"/>
				<line id="XMLID_1651_" class="st2" x1="2794.8" y1="619.6" x2="2863.9" y2="619.6"/>
				<polygon id="XMLID_1650_" class="st36" points="2827.3,657.2 2813.5,643.9 2799.8,657.2 2799.8,619.6 2827.3,619.6 				"/>
				<polygon id="XMLID_1649_" class="st2" points="2827.3,657.2 2813.5,643.9 2799.8,657.2 2799.8,619.6 2827.3,619.6 				"/>
			</g>
			<g id="XMLID_1475_">
				<path id="XMLID_1647_" class="st37" d="M2922.9,597.7h-108.8v-25.6h108.8c7.1,0,12.8,5.7,12.8,12.8l0,0
					C2935.6,592,2929.9,597.7,2922.9,597.7z"/>
				<path id="XMLID_1646_" class="st38" d="M2922.9,572.1h-108.8v8.1h108.8c5.7,0,10.5,3.7,12.1,8.8c0.4-1.3,0.7-2.6,0.7-4l0,0
					C2935.6,577.8,2929.9,572.1,2922.9,572.1z"/>
				<path id="XMLID_1645_" class="st2" d="M2922.9,597.7h-108.8c0,0,3.3-9.6,3.3-12.8s-3.3-12.8-3.3-12.8h108.8
					c7.1,0,12.8,5.7,12.8,12.8l0,0C2935.6,592,2929.9,597.7,2922.9,597.7z"/>
				<path id="XMLID_1644_" class="st2" d="M2805.1,572.1h117.7c7.1,0,12.8,5.7,12.8,12.8l0,0c0,7.1-5.7,12.8-12.8,12.8h-117.7"/>
				<path id="XMLID_1643_" class="st5" d="M2805.1,572.1"/>
				<path id="XMLID_1476_" class="st5" d="M2805.1,597.7"/>
			</g>
			<g id="XMLID_149_">
				<path id="XMLID_273_" class="st17" d="M3004.9,401.9h-15l0.6,22.6l-27.9-22.6h-21.5c-18,0-32.7-14.6-32.7-32.7v-65.8
					c0-18,14.6-32.7,32.7-32.7h63.8c18,0,32.7,14.6,32.7,32.7v65.8C3037.6,387.3,3022.9,401.9,3004.9,401.9z"/>
				<path id="XMLID_157_" class="st36" d="M2971.4,358.8c1,0.5,2.2,0.5,3.2,0c3-1.5,9.7-5.4,16.7-13.3c7.5-8.4,6.3-20.8,1.5-25.2
					c-9.9-8.9-19.8,6.7-19.8,6.7s-9.9-15.6-19.8-6.7c-4.8,4.4-6,16.7,1.5,25.2C2961.8,353.4,2968.4,357.3,2971.4,358.8z"/>
				<g id="XMLID_154_">
					<path id="XMLID_155_" class="st2" d="M2971.4,358.8c1,0.5,2.2,0.5,3.2,0c3-1.5,9.7-5.4,16.7-13.3c7.5-8.4,6.3-20.8,1.5-25.2
						c-9.9-8.9-19.8,6.7-19.8,6.7s-9.9-15.6-19.8-6.7c-4.8,4.4-6,16.7,1.5,25.2C2961.8,353.4,2968.4,357.3,2971.4,358.8z"/>
				</g>
				<path id="XMLID_153_" class="st2" d="M3004.9,401.9h-15l0.6,22.6l-27.9-22.6h-21.5c-18,0-32.7-14.6-32.7-32.7v-65.8
					c0-18,14.6-32.7,32.7-32.7h63.8c18,0,32.7,14.6,32.7,32.7v65.8C3037.6,387.3,3022.9,401.9,3004.9,401.9z"/>
				<line id="XMLID_152_" class="st14" x1="2872.3" y1="284.8" x2="2886.1" y2="284.8"/>
				<line id="XMLID_151_" class="st14" x1="2914.9" y1="256.1" x2="2914.9" y2="242.2"/>
				<line id="XMLID_150_" class="st14" x1="2894.3" y1="264.5" x2="2884.4" y2="254.7"/>
			</g>
		</g>
	</g>
</g>
</svg>
