<?xml version="1.0" encoding="utf-8"?>
<!-- Generator: Adobe Illustrator 19.0.0, SVG Export Plug-In . SVG Version: 6.00 Build 0)  -->
<svg version="1.1" id="Layer_1" xmlns="http://www.w3.org/2000/svg" xmlns:xlink="http://www.w3.org/1999/xlink" x="0px" y="0px"
	 viewBox="0 0 280 54" style="enable-background:new 0 0 280 54;" xml:space="preserve">
<style type="text/css">
	.st0{fill:#FFFFFF;}
	.st1{fill:#FCB02F;}
</style>
<g id="XMLID_4_">
	<g id="XMLID_1_">
		<path id="XMLID_17_" class="st0" d="M12.9,30.7l7.8-17.6h5L12.9,41L0,13.1h5L12.9,30.7z"/>
		<path id="XMLID_19_" class="st0" d="M35.9,3.2c0,1.8-1.4,3.2-3.2,3.2c-1.8,0-3.2-1.4-3.2-3.3c0-1.7,1.4-3.2,3.2-3.2
			C34.5,0,35.9,1.4,35.9,3.2z M34.9,39.3h-4.5V13.1h4.5V39.3z"/>
		<path id="XMLID_22_" class="st0" d="M49.1,3.2c0,1.8-1.4,3.2-3.2,3.2S42.7,5,42.7,3.2c0-1.7,1.4-3.2,3.2-3.2S49.1,1.4,49.1,3.2z
			 M48.1,54h-4.5V13.1h4.5V54z"/>
		<path id="XMLID_25_" class="st0" d="M81.1,13.1v26.1h-4.5v-3.7c-2.5,3-5.4,4.4-9,4.4c-7.2,0-12.6-5.9-12.6-13.9
			c0-7.9,5.3-13.6,12.5-13.6c3.8,0,6.6,1.3,9.1,4.3v-3.7H81.1z M59.7,26c0,5.7,3.6,9.9,8.6,9.9c5.2,0,8.8-4,8.8-9.8
			c0-5.6-3.6-9.6-8.7-9.6C63.4,16.6,59.7,20.7,59.7,26z"/>
		<path id="XMLID_28_" class="st0" d="M86,13.1h5.2l9.3,18.7l8.4-18.7h5.1L94.6,54h-5L98,36.8L86,13.1z"/>
	</g>
	<g id="XMLID_3_">
		<path id="XMLID_5_" class="st0" d="M126.6,13.5l8.9,20.8l8.9-20.8h2.9l-11.8,27.3l-11.8-27.3H126.6z"/>
		<path id="XMLID_7_" class="st0" d="M174.8,26.7h-22.1c0.1,2.4,0.6,4.3,1.4,5.8c0.9,1.5,2.1,2.7,3.6,3.7c1.6,0.9,3.2,1.4,5,1.4
			c2.5,0,4.7-0.8,6.5-2.5c0.8-0.7,1.7-1.9,2.6-3.4l2.2,1.3c-2.6,4.7-6.4,7-11.4,7c-4,0-7.3-1.5-9.6-4.5c-2-2.5-3-5.4-3-8.9
			c0-3.9,1.2-7.1,3.6-9.8c2.3-2.5,5.3-3.8,9-3.8c3,0,5.5,0.9,7.7,2.8C173.2,18.3,174.7,21.9,174.8,26.7z M171.9,24.3
			c-0.4-1.9-1-3.5-1.9-4.8c-0.9-1.3-2-2.3-3.4-3.1c-1.4-0.7-2.8-1.1-4.2-1.1c-2.2,0-4.2,0.8-6.1,2.4c-1.9,1.6-3.1,3.8-3.5,6.6H171.9
			z"/>
		<path id="XMLID_10_" class="st0" d="M182.1,13.5h2.5v3.4c1.3-2.6,3.2-3.9,5.7-3.9c0.8,0,1.8,0.2,2.8,0.6l-1.4,2.2
			c-0.7-0.4-1.3-0.6-1.8-0.6c-1.5,0-2.8,0.7-3.9,2.1c-0.7,0.9-1.1,2.1-1.3,3.6c-0.1,0.8-0.1,2.2-0.1,4.4v13.8h-2.5V13.5z"/>
		<path id="XMLID_12_" class="st0" d="M198.6,13.5h2.5v3.2c1.5-2.5,3.8-3.8,6.6-3.8c3.2,0,5.6,1.6,7.2,4.7c0.8-1.6,1.8-2.8,3.1-3.6
			c1.2-0.7,2.7-1.1,4.5-1.1c2.8,0,4.9,0.9,6.4,2.8c0.8,1,1.3,2.2,1.4,3.5c0.1,0.9,0.2,1.9,0.2,3.1v16.8h-2.5V22.1
			c0-1.6-0.1-2.7-0.3-3.4c-0.4-1.2-1.2-2.1-2.4-2.7c-0.8-0.4-1.8-0.6-2.8-0.6c-2.2,0-3.9,0.8-5.1,2.5c-1,1.3-1.4,3.3-1.4,5.9v15.5
			h-2.5V22.7c0-2-0.3-3.5-0.9-4.6c-1-1.8-2.6-2.7-4.8-2.7c-1.1,0-2.2,0.3-3.2,0.9c-1,0.6-1.8,1.4-2.2,2.4c-0.7,1.4-1.1,3.4-1.1,5.8
			v14.9h-2.5V13.5z"/>
		<path id="XMLID_14_" class="st0" d="M260.3,13.5h2.5v25.7h-2.5v-4.6c-1.1,1.7-2.6,3-4.3,3.9c-1.7,0.9-3.6,1.4-5.8,1.4
			c-3.9,0-7.1-1.5-9.6-4.5c-2-2.4-3-5.5-3-9.1c0-4.6,1.5-8,4.4-10.5c2.3-1.9,5-2.9,8.2-2.9c4.2,0,7.5,1.7,10.1,5V13.5z M250.2,15.3
			c-2.8,0-5.2,1.1-7.3,3.4c-1.8,1.9-2.6,4.5-2.6,7.6c0,3.4,1,6.1,3,8.2c1.9,2,4.3,3,7.1,3c3.2,0,5.8-1.3,7.7-3.8
			c1.5-2,2.3-4.5,2.3-7.7c0-3.5-1.1-6.2-3.2-8C255.2,16.2,252.8,15.3,250.2,15.3z"/>
	</g>
	<circle id="XMLID_2_" class="st1" cx="275" cy="34.9" r="5"/>
</g>
</svg>
