<?xml version="1.0" encoding="utf-8"?>
<!-- Generator: Adobe Illustrator 19.0.0, SVG Export Plug-In . SVG Version: 6.00 Build 0)  -->
<svg version="1.1" id="Layer_1" xmlns="http://www.w3.org/2000/svg" xmlns:xlink="http://www.w3.org/1999/xlink" x="0px" y="0px"
	 viewBox="1300 0 3600 1000" style="enable-background:new 1300 0 3600 1000;" xml:space="preserve">
<style type="text/css">
	.st0{fill:#4F3183;}
	.st1{fill:#FDB130;}
	.st2{fill:none;stroke:#2A2A2A;stroke-width:8;stroke-linecap:round;stroke-linejoin:round;stroke-miterlimit:10;}
	.st3{opacity:0.12;}
	.st4{fill:#515151;}
	.st5{fill:none;stroke:#2A2A2A;stroke-width:10;stroke-linecap:round;stroke-linejoin:round;stroke-miterlimit:10;}
	.st6{fill:#DF358D;}
	.st7{opacity:0.31;fill:#DF358D;enable-background:new    ;}
	
		.st8{opacity:0.31;fill:#DF358D;stroke:#DF358D;stroke-width:10;stroke-linecap:round;stroke-miterlimit:10;enable-background:new    ;}
	.st9{fill:#F9A991;}
	.st10{opacity:0.26;fill:#F9A991;enable-background:new    ;}
	.st11{fill:none;stroke:#FFFFFF;stroke-width:8;stroke-linecap:round;stroke-linejoin:round;stroke-miterlimit:10;}
	.st12{fill:#2A2A2A;}
	.st13{fill:#FFFFFF;}
	.st14{fill:#8E4B42;}
	.st15{opacity:0.3;}
	.st16{fill:none;stroke:#2A2A2A;stroke-width:6;stroke-linecap:round;stroke-linejoin:round;stroke-miterlimit:10;}
	.st17{fill:none;stroke:#452B73;stroke-width:10;stroke-linecap:round;stroke-linejoin:round;stroke-miterlimit:10;}
	.st18{fill:none;stroke:#452B73;stroke-width:4;stroke-linecap:round;stroke-linejoin:round;stroke-miterlimit:10;}
	.st19{fill:#452B73;}
	.st20{fill:none;stroke:#452B73;stroke-width:8;stroke-linecap:round;stroke-linejoin:round;stroke-miterlimit:10;}
	.st21{fill:#CDC5C3;}
	.st22{opacity:0.7;fill:#FFF7F5;enable-background:new    ;}
	.st23{fill:#AFABAA;}
	.st24{fill:#AAD543;}
	.st25{opacity:0.54;fill:#AAD543;enable-background:new    ;}
	.st26{fill:none;stroke:#FCFCFC;stroke-width:8;stroke-linecap:round;stroke-linejoin:round;stroke-miterlimit:10;}
	.st27{fill:none;stroke:#2A2A2A;stroke-width:4;stroke-linecap:round;stroke-linejoin:round;stroke-miterlimit:10;}
	.st28{fill:#482D78;}
	.st29{fill:#6F6C75;}
	.st30{fill:#D3D3D3;}
	.st31{fill:#E72153;}
	.st32{fill:#FFC86B;}
	.st33{fill:#E8AD56;}
</style>
<g id="Layer_1_1_">
	<rect id="XMLID_1591_" x="1300" class="st0" width="3600" height="795.5"/>
	<rect id="XMLID_1502_" x="1300" y="795.5" class="st1" width="3600" height="204.5"/>
	<line id="XMLID_1478_" class="st2" x1="3110.3" y1="837.4" x2="3095.9" y2="837.4"/>
</g>
<g id="Layer_4">
</g>
<g id="pat">
</g>
<g id="user">
</g>
<g id="Layer_5">
	<g id="XMLID_299_">
		<g id="XMLID_1583_" class="st3">
			<rect id="XMLID_1590_" x="3137.1" y="446.7" class="st4" width="78.6" height="39.3"/>
			<rect id="XMLID_1589_" x="3137.1" y="446.7" class="st5" width="78.6" height="39.3"/>
			<rect id="XMLID_1588_" x="3215.7" y="446.7" class="st5" width="78.6" height="39.3"/>
			<rect id="XMLID_1587_" x="3176.4" y="487.1" class="st5" width="78.6" height="39.3"/>
			<rect id="XMLID_1586_" x="3176.4" y="407.4" class="st5" width="78.6" height="39.3"/>
			<rect id="XMLID_1585_" x="3252.1" y="561.1" class="st4" width="78.6" height="39.3"/>
			<rect id="XMLID_1584_" x="3252.1" y="561.1" class="st5" width="78.6" height="39.3"/>
		</g>
		<g id="XMLID_1503_">
			<g id="XMLID_1560_">
				<ellipse id="XMLID_1582_" class="st6" cx="3073.1" cy="559" rx="95.3" ry="46.6"/>
				<path id="XMLID_1581_" class="st7" d="M3134.9,538.8c0,18-27.9,32.6-62.4,32.6c-34.4,0-62.4-14.6-62.4-32.6"/>
				<path id="XMLID_1580_" class="st7" d="M3073.1,536.4c19.8,0,38.5-4.8,55-13.4c-15.5-5.4-34.5-8.5-55-8.5s-39.5,3.2-55,8.5
					C3034.6,531.5,3053.3,536.4,3073.1,536.4z"/>
				<ellipse id="XMLID_1579_" class="st2" cx="3073.1" cy="559" rx="95.3" ry="46.6"/>
				<path id="XMLID_1578_" class="st6" d="M3212.8,695.4h-279.4v-60.7c0-28.6,18.3-54.1,45.4-63.2l12.6-4.3
					c53-17.9,110.4-17.9,163.4,0l12.6,4.3c27.1,9.2,45.4,34.6,45.4,63.2V695.4z"/>
				<path id="XMLID_1577_" class="st7" d="M3167.5,571.4l-12.6-4.3c-53-17.9-110.4-17.9-163.4,0l-12.6,4.3
					c-27.1,9.2-45.4,34.6-45.4,63.2v10.7c0-28.6,18.3-54.1,45.4-63.2l12.6-4.3c53-17.9,110.4-17.9,163.4,0l12.6,4.3
					c27.1,9.2,45.4,34.6,45.4,63.2v-10.7C3212.8,606,3194.6,580.6,3167.5,571.4z"/>
				<path id="XMLID_1576_" class="st2" d="M3212.8,695.4h-279.4v-60.7c0-28.6,18.3-54.1,45.4-63.2l12.6-4.3
					c53-17.9,110.4-17.9,163.4,0l12.6,4.3c27.1,9.2,45.4,34.6,45.4,63.2V695.4z"/>
				<path id="XMLID_1575_" class="st8" d="M3025.2,564.6v21.1c0,16,13.9,28.9,31.1,28.9h33.6c17.2,0,31.1-12.9,31.1-28.9v-21.1"/>
				<g id="XMLID_1572_">
					<path id="XMLID_1574_" class="st6" d="M3015,537.2c0,0,10.2,7.5,10.2,18.4v21.1c0,16,13.9,28.9,31.1,28.9h33.6
						c17.2,0,31.1-12.9,31.1-28.9v-21.1c0-10.9,10.2-18.4,10.2-18.4H3015z"/>
					<path id="XMLID_1573_" class="st2" d="M3015,537.2c0,0,10.2,7.5,10.2,18.4v21.1c0,16,13.9,28.9,31.1,28.9h33.6
						c17.2,0,31.1-12.9,31.1-28.9v-21.1c0-10.9,10.2-18.4,10.2-18.4"/>
				</g>
				<path id="XMLID_1569_" class="st9" d="M3073.1,581.4L3073.1,581.4c-13.3,0-24-10.7-24-24V504h48v53.4
					C3097.1,570.6,3086.4,581.4,3073.1,581.4z"/>
				<path id="XMLID_1566_" class="st10" d="M3049.1,534c7.8,1.6,15.8,2.4,24,2.4s16.2-0.8,24-2.4v-28h-48V534z"/>
				<path id="XMLID_1565_" class="st2" d="M3073.1,581.4L3073.1,581.4c-13.3,0-24-10.7-24-24V504h48v53.4
					C3097.1,570.6,3086.4,581.4,3073.1,581.4z"/>
				<g id="XMLID_1562_">
					<line id="XMLID_1564_" class="st11" x1="3043.6" y1="587.6" x2="3043.6" y2="628.3"/>
					<line id="XMLID_1563_" class="st11" x1="3102.6" y1="587.6" x2="3102.6" y2="645.4"/>
				</g>
				<line id="XMLID_1561_" class="st2" x1="3073.1" y1="609.5" x2="3073.1" y2="695.4"/>
			</g>
			<g id="XMLID_1504_">
				<g id="XMLID_1505_">
					<g id="XMLID_1534_">
						<path id="XMLID_1557_" class="st9" d="M3073.1,524.4L3073.1,524.4c-60.8,0-110-49.2-110-110V302.7h220v111.6
							C3183.1,475.1,3133.9,524.4,3073.1,524.4z"/>
						<path id="XMLID_1554_" class="st10" d="M3183.1,399.2v-96.5h-220v96.5l0.4-41.2c1.7-6,24.2-22.5,38.8-29.3
							c18.6,11.2,39.6,16.9,62.5,16.9c26,0,49.5-7.4,64.6-15.1c7.4,6.9,25.8,20.4,50.7,22.6L3183.1,399.2z"/>
						<path id="XMLID_1551_" class="st10" d="M3073.1,510.2L3073.1,510.2c-60.8,0-110-49.2-110-110v14.1c0,60.8,49.2,110,110,110
							l0,0c60.8,0,110-49.2,110-110v-14.1C3183.1,461,3133.9,510.2,3073.1,510.2z"/>
						<path id="XMLID_1548_" class="st10" d="M3089.6,421.9c0,4.3-5.4,7.7-16.5,7.7s-16.5-3.5-16.5-7.7c0,0,11.8,1.9,15.9,1.9
							C3076.6,423.8,3089.6,421.9,3089.6,421.9z"/>
						<path id="XMLID_1547_" class="st2" d="M3089.6,423.9c0,4.3-5.4,7.7-16.5,7.7s-16.5-3.5-16.5-7.7"/>
						<path id="XMLID_1546_" class="st2" d="M3073.1,524.4L3073.1,524.4c-60.8,0-110-49.2-110-110V302.7h220v111.6
							C3183.1,475.1,3133.9,524.4,3073.1,524.4z"/>
						<g id="XMLID_1539_">
							<g id="XMLID_1543_">
								<path id="XMLID_1545_" class="st2" d="M3031.2,371.9c-5-1.1-10.7-1.3-16.7-0.4s-11.4,2.9-15.8,5.4"/>
								<circle id="XMLID_1544_" class="st12" cx="3024.2" cy="395.4" r="9"/>
							</g>
							<g id="XMLID_1540_">
								<path id="XMLID_1542_" class="st2" d="M3115.1,371.9c5-1.1,10.7-1.3,16.7-0.4s11.4,2.9,15.8,5.4"/>
								<circle id="XMLID_1541_" class="st12" cx="3122" cy="395.4" r="9"/>
							</g>
						</g>
						<g id="XMLID_1535_">
							<path id="XMLID_1538_" class="st13" d="M3102.6,452.5c0,15.1-13.2,27.3-29.5,27.3s-29.5-12.2-29.5-27.3H3102.6z"/>
							<path id="XMLID_1537_" class="st2" d="M3102.6,452.5c0,15.1-13.2,27.3-29.5,27.3s-29.5-12.2-29.5-27.3H3102.6z"/>
							<line id="XMLID_1536_" class="st2" x1="3065.9" y1="494.9" x2="3080.4" y2="494.9"/>
						</g>
					</g>
					<g id="XMLID_1532_">
						<path id="XMLID_1533_" class="st14" d="M2948.3,306.7v78.5h14.8v-37.1c0-9.1,39-35.4,39-35.4c50.6,34.6,109.9,13.5,129.2,1.3
							c0,0,16.2,20.3,51.8,32.5v38.7h14.8v-78.5c0-24.2-14.6-54.7-47.7-59.7c-8.5-25-40.1-33-57.6-30.7c-45.8,6-61.5,9.3-93.9-6.3
							c-6.6,17.2,0,28.6,0,28.6c-13.6,2.4-15.3,4.4-35.6-0.1c0,8.2,0.4,20.5,4,25.2C2949.6,273.9,2948.3,287.6,2948.3,306.7z"/>
					</g>
					<g id="XMLID_1530_">
						<path id="XMLID_1531_" class="st2" d="M2948.3,306.7v78.5h14.8v-37.1c0-9.1,39-35.4,39-35.4c50.6,34.6,109.9,13.5,129.2,1.3
							c0,0,16.2,20.3,51.8,32.5v38.7h14.8v-78.5c0-24.2-14.6-54.7-47.7-59.7c-8.5-25-40.1-33-57.6-30.7c-45.8,6-61.5,9.3-93.9-6.3
							c-6.6,17.2,0,28.6,0,28.6c-13.6,2.4-15.3,4.4-35.6-0.1c0,8.2,0.4,20.5,4,25.2C2949.6,273.9,2948.3,287.6,2948.3,306.7z"/>
					</g>
					<g id="XMLID_1522_">
						<g id="XMLID_1525_">
							<g id="XMLID_332_">
								<path id="XMLID_333_" class="st9" d="M2963.1,414.4v-35.9h-8c-8.8,0-14,7.7-11.5,17l3.5,13.5c2,7.7,9,13.8,16.3,14.9
									C2963.3,420.7,2963.1,417.5,2963.1,414.4z"/>
							</g>
						</g>
						<g id="XMLID_1523_">
							<path id="XMLID_1524_" class="st2" d="M2963.1,414.4v-35.9h-8c-8.8,0-14,7.7-11.5,17l3.5,13.5c2,7.7,9,13.8,16.3,14.9
								C2963.3,420.7,2963.1,417.5,2963.1,414.4z"/>
						</g>
					</g>
					<g id="XMLID_1514_">
						<g id="XMLID_1517_">
							<g id="XMLID_329_">
								<path id="XMLID_330_" class="st9" d="M3183.1,414.4v-35.9h8c8.8,0,14,7.7,11.5,17l-3.5,13.5c-2,7.7-9,13.8-16.3,14.9
									C3182.9,420.7,3183.1,417.5,3183.1,414.4z"/>
							</g>
						</g>
						<g id="XMLID_1515_">
							<path id="XMLID_1516_" class="st2" d="M3183.1,414.4v-35.9h8c8.8,0,14,7.7,11.5,17l-3.5,13.5c-2,7.7-9,13.8-16.3,14.9
								C3182.9,420.7,3183.1,417.5,3183.1,414.4z"/>
						</g>
					</g>
					<g id="XMLID_1506_" class="st15">
						<g id="XMLID_1512_">
							<path id="XMLID_1513_" class="st16" d="M3015.2,280.9c0,0,36.9,4.1,50.7,30.8"/>
						</g>
						<g id="XMLID_1510_">
							<path id="XMLID_1511_" class="st16" d="M3026.2,246.3c0,0,56.4,21.7,70.9,65.3"/>
						</g>
						<g id="XMLID_1508_">
							<path id="XMLID_1509_" class="st16" d="M3082.6,250.3c0,0,30.4,19.9,32.4,52.9"/>
						</g>
						<path id="XMLID_1507_" class="st16" d="M3141.5,297.7c0,0,26.9-4.3,38.6,19.1"/>
					</g>
				</g>
			</g>
		</g>
		<g id="XMLID_1492_">
			<circle id="XMLID_1500_" class="st17" cx="3337.6" cy="281.7" r="81.9"/>
			<circle id="XMLID_1496_" class="st18" cx="3337.6" cy="281.7" r="67.5"/>
			<circle id="XMLID_1495_" class="st19" cx="3337.6" cy="281.7" r="11.4"/>
			<line id="XMLID_1494_" class="st20" x1="3337.6" y1="238.4" x2="3337.6" y2="270.3"/>
			<line id="XMLID_1493_" class="st18" x1="3381.6" y1="313.3" x2="3340.2" y2="284.3"/>
		</g>
		<g id="XMLID_1481_">
			<path id="XMLID_1489_" class="st21" d="M3218,837.4h-289.7c-17.7,0-32-14.3-32-32V655.6c0-17.7,14.3-32,32-32H3218
				c17.7,0,32,14.3,32,32v149.8C3250,823.1,3235.7,837.4,3218,837.4z"/>
			<path id="XMLID_1486_" class="st22" d="M3218,623.6h-289.7c-17.7,0-32,14.3-32,32v12.3c0-17.7,14.3-32,32-32H3218
				c17.7,0,32,14.3,32,32v-12.3C3250,637.9,3235.7,623.6,3218,623.6z"/>
			<path id="XMLID_1483_" class="st23" d="M2896.2,795.5v9.9c0,17.7,14.3,32,32,32h289.7c17.7,0,32-14.3,32-32v-9.9H2896.2z"/>
			<path id="XMLID_1482_" class="st2" d="M3218,837.4h-289.7c-17.7,0-32-14.3-32-32V655.6c0-17.7,14.3-32,32-32H3218
				c17.7,0,32,14.3,32,32v149.8C3250,823.1,3235.7,837.4,3218,837.4z"/>
		</g>
		<path id="XMLID_1480_" class="st16" d="M3080.7,726.5c-3.6-8.8,1.9-15.6-2-19.3c-3.4-3.2-10.8-1.1-15.2,2.1
			c-6.3,4.5-7.5,12-7.7,13.4c-1.7,12,7.9,25.6,19.1,26.1c7,0.3,15.1-4.5,15.5-9.2C3090.9,735,3083.9,734.4,3080.7,726.5z"/>
		<line id="XMLID_1479_" class="st2" x1="3337.6" y1="837.4" x2="3466.6" y2="837.4"/>
		<line id="XMLID_1477_" class="st2" x1="2866" y1="837.4" x2="3290.9" y2="837.4"/>
		<path id="XMLID_1460_" class="st24" d="M3403.7,837.4h-25.6c-13,0-23.6-10.6-23.6-23.6v-57.4c0-4.3,3.5-7.7,7.7-7.7h57.3
			c4.3,0,7.7,3.5,7.7,7.7v57.4C3427.2,826.9,3416.7,837.4,3403.7,837.4z"/>
		<path id="XMLID_1457_" class="st25" d="M3419.5,748.8h-29.4c4.3,0,7.7,3.5,7.7,7.7v57.4c0,12.4-9.6,22.5-21.7,23.5
			c0.6,0,1.2,0.1,1.9,0.1h25.6c13,0,23.6-10.6,23.6-23.6v-57.4C3427.2,752.2,3423.8,748.8,3419.5,748.8z"/>
		<path id="XMLID_1159_" class="st24" d="M3369.8,813.8v-57.4c0-4.3,3.5-7.7,7.7-7.7h-15.3c-4.3,0-7.7,3.5-7.7,7.7v57.4
			c0,13,10.6,23.6,23.6,23.6h15.3C3380.3,837.4,3369.8,826.9,3369.8,813.8z"/>
		<path id="XMLID_1158_" class="st2" d="M3403.7,837.4h-25.6c-13,0-23.6-10.6-23.6-23.6v-57.4c0-4.3,3.5-7.7,7.7-7.7h57.3
			c4.3,0,7.7,3.5,7.7,7.7v57.4C3427.2,826.9,3416.7,837.4,3403.7,837.4z"/>
		<path id="XMLID_1157_" class="st2" d="M3436.1,804.8h-8.8v-36.2h8.8c7.8,0,14.2,6.3,14.2,14.2v7.9
			C3450.2,798.4,3443.9,804.8,3436.1,804.8z"/>
		<path id="XMLID_1156_" class="st26" d="M3427.2,668.9h-54.5c-7.8,0-14.2,6.3-14.2,14.2l0,0c0,7.8,6.3,14.2,14.2,14.2h31.4
			c5.4,0,9.7,4.4,9.7,9.7l0,0c0,5.4-4.4,9.7-9.7,9.7h-4.7c-6.4,0-11.5,5.2-11.5,11.5v1.6"/>
		<line id="XMLID_1155_" class="st26" x1="3412.3" y1="649.1" x2="3442.2" y2="649.1"/>
		<line id="XMLID_1154_" class="st27" x1="3388.6" y1="763.7" x2="3414.8" y2="763.7"/>
		<g id="XMLID_1108_">
			<line id="XMLID_1153_" class="st17" x1="2634.9" y1="404.2" x2="2875.8" y2="404.2"/>
			<rect id="XMLID_1152_" x="2729.4" y="255.3" class="st28" width="44" height="25"/>
			<rect id="XMLID_1151_" x="2729.4" y="255.3" class="st17" width="44" height="25"/>
			<rect id="XMLID_1150_" x="2729.4" y="358.1" class="st28" width="44" height="46.1"/>
			<rect id="XMLID_1149_" x="2729.4" y="358.1" class="st17" width="44" height="46.1"/>
			<rect id="XMLID_1148_" x="2729.4" y="255.3" class="st17" width="44" height="148.9"/>
			<rect id="XMLID_1147_" x="2773.3" y="376.3" class="st29" width="28.5" height="27.9"/>
			<rect id="XMLID_1146_" x="2773.3" y="376.3" class="st28" width="28.5" height="27.9"/>
			<rect id="XMLID_1145_" x="2773.3" y="223.8" class="st17" width="28.5" height="180.4"/>
			<rect id="XMLID_1144_" x="2801.8" y="288.1" class="st17" width="34" height="116.1"/>
			<line id="XMLID_1143_" class="st18" x1="2787.6" y1="258.8" x2="2787.6" y2="338.8"/>
			<line id="XMLID_1142_" class="st18" x1="2818.8" y1="313" x2="2818.8" y2="346.5"/>
			<path id="XMLID_1141_" class="st17" d="M2645.9,378.8c0,0.4,0,0.8,0,1.2c0,10.7,6.3,19.9,15.4,24.2h22.5
				c9.1-4.2,15.4-13.5,15.4-24.2c0-0.4,0-0.8,0-1.2H2645.9z"/>
			<circle id="XMLID_1117_" class="st17" cx="2672.5" cy="361.9" r="16.9"/>
			<circle id="XMLID_1116_" class="st17" cx="2653.3" cy="338.8" r="11.4"/>
			<circle id="XMLID_1115_" class="st17" cx="2691.6" cy="345.5" r="8.7"/>
			<line id="XMLID_1114_" class="st18" x1="2653.3" y1="313" x2="2653.3" y2="327.4"/>
			<line id="XMLID_1113_" class="st18" x1="2691.6" y1="327.4" x2="2691.6" y2="337.5"/>
			<line id="XMLID_1112_" class="st18" x1="2708.6" y1="345" x2="2698.4" y2="345"/>
			<line id="XMLID_1111_" class="st18" x1="2627.7" y1="338.8" x2="2642.1" y2="338.8"/>
			<line id="XMLID_1110_" class="st18" x1="2634.9" y1="320.2" x2="2645" y2="330.4"/>
			<line id="XMLID_1109_" class="st18" x1="2637" y1="355.2" x2="2647.1" y2="345.1"/>
		</g>
		<line id="XMLID_1658_" class="st2" x1="2604.6" y1="837.4" x2="2613.5" y2="837.4"/>
		<line id="XMLID_1657_" class="st2" x1="2630.2" y1="837.4" x2="2848.3" y2="837.4"/>
		<g id="XMLID_1648_">
			<path id="XMLID_1656_" class="st2" d="M2836.3,837.4h-162.1c-11,0-19.8-8.9-19.8-19.8l0,0c0-11,8.9-19.8,19.8-19.8h162.1"/>
			<path id="XMLID_1655_" class="st30" d="M2674.2,797.7c-11,0-19.8,8.9-19.8,19.8l0,0c0,1.8,0.3,3.5,0.7,5.1
				c2.3-8.5,10-14.7,19.2-14.7h148.8v-10.2L2674.2,797.7L2674.2,797.7z"/>
			<path id="XMLID_1654_" class="st13" d="M2815.3,817.6c0-9,4.7-16.6,11-19v-0.8h-152.2c-11,0-19.8,8.9-19.8,19.8l0,0
				c0,11,8.9,19.8,19.8,19.8h152.2v-0.8C2820,834.2,2815.3,826.6,2815.3,817.6z"/>
			<path id="XMLID_1653_" class="st2" d="M2815.3,817.6c0-9,4.7-16.6,11-19v-0.8h-152.2c-11,0-19.8,8.9-19.8,19.8l0,0
				c0,11,8.9,19.8,19.8,19.8h152.2v-0.8C2820,834.2,2815.3,826.6,2815.3,817.6z"/>
			<line id="XMLID_1652_" class="st2" x1="2768.4" y1="819.6" x2="2782.4" y2="819.6"/>
			<line id="XMLID_1651_" class="st2" x1="2676.1" y1="819.6" x2="2745.3" y2="819.6"/>
			<polygon id="XMLID_1650_" class="st31" points="2708.6,857.2 2694.9,843.9 2681.2,857.2 2681.2,819.6 2708.6,819.6 			"/>
			<polygon id="XMLID_1649_" class="st2" points="2708.6,857.2 2694.9,843.9 2681.2,857.2 2681.2,819.6 2708.6,819.6 			"/>
		</g>
		<g id="XMLID_1475_">
			<path id="XMLID_1647_" class="st32" d="M2804.2,797.7h-108.8v-25.6h108.8c7.1,0,12.8,5.7,12.8,12.8l0,0
				C2817,792,2811.3,797.7,2804.2,797.7z"/>
			<path id="XMLID_1646_" class="st33" d="M2804.2,772.1h-108.8v8.1h108.8c5.7,0,10.5,3.7,12.1,8.8c0.4-1.3,0.7-2.6,0.7-4l0,0
				C2817,777.8,2811.3,772.1,2804.2,772.1z"/>
			<path id="XMLID_1645_" class="st2" d="M2804.2,797.7h-108.8c0,0,3.3-9.6,3.3-12.8s-3.3-12.8-3.3-12.8h108.8
				c7.1,0,12.8,5.7,12.8,12.8l0,0C2817,792,2811.3,797.7,2804.2,797.7z"/>
			<path id="XMLID_1644_" class="st2" d="M2686.5,772.1h117.7c7.1,0,12.8,5.7,12.8,12.8l0,0c0,7.1-5.7,12.8-12.8,12.8h-117.7"/>
			<path id="XMLID_1643_" class="st5" d="M2686.5,772.1"/>
			<path id="XMLID_1476_" class="st5" d="M2686.5,797.7"/>
		</g>
		<g id="XMLID_149_">
			<path id="XMLID_273_" class="st13" d="M2886.3,601.9h-15l0.6,22.6l-27.9-22.6h-21.5c-18,0-32.7-14.6-32.7-32.7v-65.8
				c0-18,14.6-32.7,32.7-32.7h63.8c18,0,32.7,14.6,32.7,32.7v65.8C2919,587.3,2904.3,601.9,2886.3,601.9z"/>
			<path id="XMLID_157_" class="st31" d="M2852.8,558.8c1,0.5,2.2,0.5,3.2,0c3-1.5,9.7-5.4,16.7-13.3c7.5-8.4,6.3-20.8,1.5-25.2
				c-9.9-8.9-19.8,6.7-19.8,6.7s-9.9-15.6-19.8-6.7c-4.8,4.4-6,16.7,1.5,25.2C2843.1,553.4,2849.8,557.3,2852.8,558.8z"/>
			<g id="XMLID_154_">
				<path id="XMLID_155_" class="st2" d="M2852.8,558.8c1,0.5,2.2,0.5,3.2,0c3-1.5,9.7-5.4,16.7-13.3c7.5-8.4,6.3-20.8,1.5-25.2
					c-9.9-8.9-19.8,6.7-19.8,6.7s-9.9-15.6-19.8-6.7c-4.8,4.4-6,16.7,1.5,25.2C2843.1,553.4,2849.8,557.3,2852.8,558.8z"/>
			</g>
			<path id="XMLID_153_" class="st2" d="M2886.3,601.9h-15l0.6,22.6l-27.9-22.6h-21.5c-18,0-32.7-14.6-32.7-32.7v-65.8
				c0-18,14.6-32.7,32.7-32.7h63.8c18,0,32.7,14.6,32.7,32.7v65.8C2919,587.3,2904.3,601.9,2886.3,601.9z"/>
			<line id="XMLID_152_" class="st11" x1="2753.6" y1="484.8" x2="2767.5" y2="484.8"/>
			<line id="XMLID_151_" class="st11" x1="2796.2" y1="456.1" x2="2796.2" y2="442.2"/>
			<line id="XMLID_150_" class="st11" x1="2775.6" y1="464.5" x2="2765.8" y2="454.7"/>
		</g>
	</g>
</g>
</svg>
