<?xml version="1.0" encoding="UTF-8"?>
<svg width="32px" height="32px" viewBox="0 0 32 32" version="1.1" xmlns="http://www.w3.org/2000/svg" xmlns:xlink="http://www.w3.org/1999/xlink">
    <!-- Generator: Sketch 53 (72520) - https://sketchapp.com -->
    <title>d-vv456</title>
    <desc>Created with Sketch.</desc>
    <g id="Page-1" stroke="none" stroke-width="1" fill="none" fill-rule="evenodd">
        <g id="d-vv456" fill="#FFFFFF" fill-rule="nonzero">
            <path d="M29.444084,15.8048 C29.305235,15.776994 29.131378,15.745723 28.923423,15.71117 C28.715104,15.676618 28.461566,15.634954 28.163081,15.586179 C27.865053,15.537677 27.531378,15.492458 27.163788,15.450794 C26.795925,15.40913 26.403811,15.371022 25.986808,15.33647 C25.570534,15.301552 25.126455,15.274202 24.654569,15.253142 C24.181953,15.232538 23.703321,15.22178 23.217213,15.22178 C22.731834,15.22178 22.22111,15.236093 21.686956,15.263444 C21.152802,15.290885 20.635697,15.340025 20.136005,15.409495 C20.094341,15.33966 20.042375,15.225427 19.980016,15.065518 C19.917383,14.905974 19.872164,14.784538 19.845087,14.70121 C19.580791,14.11819 19.275651,13.45868 18.928027,12.722863 C19.886022,12.334031 20.799161,11.886395 21.66699,11.379592 C22.534546,10.872789 23.227879,10.421962 23.748905,10.026293 C24.269566,9.630259 24.762421,9.21043 25.227195,8.76635 C25.6927,8.32227 25.994284,8.013484 26.133497,7.839717 C26.272438,7.665951 26.404175,7.496014 26.529167,7.329723 L26.549862,7.308754 C28.576529,9.779501 29.611469,12.625313 29.652403,15.846099 L29.444084,15.8048 Z M27.487161,23.373848 C26.459788,24.963638 25.175594,26.279193 23.634945,27.32015 C23.065509,24.127079 22.177349,20.871375 20.969372,17.553769 C23.731856,17.123182 26.570831,17.324754 29.486113,18.157393 C29.180517,20.04521 28.514261,21.784515 27.487161,23.373848 L27.487161,23.373848 Z M15.992141,29.652048 C12.743913,29.652048 9.84258,28.611091 7.28805,26.528811 L7.600392,26.757826 C8.086136,25.688789 8.801258,24.661324 9.745395,23.675888 C10.68944,22.690452 11.59866,21.895284 12.473235,21.291296 C13.347537,20.687945 14.298421,20.118874 15.325794,19.583626 C16.353258,19.049472 17.053794,18.70896 17.429133,18.563729 C17.804107,18.418133 18.1025,18.303353 18.324403,18.21966 L18.366067,18.199056 L18.407731,18.199056 C19.767777,21.766737 20.739993,25.223558 21.323013,28.569062 C19.601486,29.291296 17.825167,29.652048 15.992141,29.652048 L15.992141,29.652048 Z M3.248574,20.91696 C2.637475,19.355341 2.332244,17.713586 2.332244,15.99215 C2.332244,15.797689 2.339355,15.651638 2.352939,15.554817 C7.37858,15.554817 12.050215,14.909529 16.36748,13.618225 C16.811651,14.478578 17.179515,15.249222 17.471161,15.929791 C17.414911,15.957233 17.32511,15.988595 17.200119,16.023148 C17.074762,16.057974 16.985053,16.081951 16.928802,16.096082 L16.158432,16.366851 C15.631025,16.561222 14.940153,16.894532 14.086546,17.366054 C13.232848,17.838669 12.327275,18.400629 11.369281,19.053028 C10.411287,19.705883 9.422386,20.570156 8.402033,21.646304 C7.381771,22.721905 6.524517,23.877461 5.830455,25.11288 C4.719754,23.877461 3.859309,22.478213 3.248574,20.91696 L3.248574,20.91696 Z M5.289554,7.516709 C6.622158,5.83721 8.246044,4.545905 10.162033,3.643797 C11.883195,5.934395 13.576916,8.558031 15.242831,11.514885 C11.022386,12.625677 6.81662,13.180891 2.623891,13.1805272 C3.068335,11.084754 3.956859,9.196207 5.289554,7.516709 L5.289554,7.516709 Z M15.992141,2.332253 C19.434831,2.332253 22.440552,3.470395 25.008574,5.747136 L24.748198,6.111079 C24.644267,6.257039 24.383891,6.538019 23.967617,6.954749 C23.551252,7.371022 23.096506,7.766692 22.603651,8.141666 C22.110705,8.516367 21.441258,8.943307 20.594033,9.422304 C19.747173,9.901301 18.845064,10.321222 17.88707,10.682247 C16.290626,7.738885 14.583321,5.087535 12.764609,2.727831 C13.861452,2.463991 14.937326,2.332253 15.992141,2.332253 L15.992141,2.332253 Z M29.839754,7.964709 C28.409874,5.514566 26.47009,3.574783 24.019948,2.144903 C21.56944,0.714658 18.894204,-8.99999998e-06 15.992506,-8.99999998e-06 C13.091173,-8.99999998e-06 10.415207,0.714658 7.965064,2.144903 C5.514922,3.574418 3.575138,5.514566 2.144893,7.964709 C0.71474,10.414851 -1.8e-05,13.090726 -1.8e-05,15.99215 C-1.8e-05,18.893484 0.715104,21.569085 2.144893,24.019501 C3.574774,26.46937 5.514557,28.409153 7.9647,29.839307 C10.415207,31.269187 13.090808,31.98431 15.992141,31.98431 C18.893475,31.98431 21.56944,31.269187 24.019948,29.839307 C26.469725,28.409883 28.409509,26.46937 29.839754,24.019501 C31.26927,21.569085 31.983936,18.893119 31.983936,15.99215 C31.984301,13.090726 31.26927,10.414487 29.839754,7.964709 L29.839754,7.964709 Z"></path>
        </g>
    </g>
</svg>