<?xml version="1.0" encoding="UTF-8"?>
<svg width="82px" height="32px" viewBox="0 0 82 32" version="1.1" xmlns="http://www.w3.org/2000/svg" xmlns:xlink="http://www.w3.org/1999/xlink">
    <!-- Generator: Sketch 53 (72520) - https://sketchapp.com -->
    <title>d-vv456 copy</title>
    <desc>Created with Sketch.</desc>
    <g id="Page-1" stroke="none" stroke-width="1" fill="none" fill-rule="evenodd">
        <path d="M10.031185,24 C8.06443923,24 6.4788695,23.7188783 5.27442827,23.1566265 L5.27442827,20.2891566 C5.96050239,20.5783147 6.6923038,20.8112441 7.46985447,20.9879518 C8.24740514,21.1646595 9.00207534,21.253012 9.73388773,21.253012 C10.8773446,21.253012 11.6815639,21.1405634 12.1465696,20.9156627 C12.6115754,20.6907619 12.8440748,20.2249031 12.8440748,19.5180723 C12.8440748,19.0522065 12.7373538,18.6827323 12.5239085,18.4096386 C12.3104632,18.1365448 11.9598084,17.8995994 11.4719335,17.6987952 C10.9840585,17.497991 10.2217654,17.2449814 9.18503119,16.939759 C7.64517595,16.4899576 6.56271969,15.9277142 5.93762994,15.253012 C5.31254019,14.5783099 5,13.6465923 5,12.4578313 C5,11.0281053 5.49549054,9.9277147 6.48648649,9.15662651 C7.47748243,8.38553831 8.91821647,8 10.8087318,8 C11.6625129,8 12.4743551,8.06024036 13.2442827,8.18072289 C14.0142104,8.30120542 14.6431022,8.45783036 15.1309771,8.65060241 L15.1309771,11.5180723 C13.8807976,11.0200778 12.5772764,10.7710843 11.2203742,10.7710843 C10.18364,10.7710843 9.40991246,10.8915651 8.8991684,11.1325301 C8.38842433,11.3734952 8.13305613,11.8152578 8.13305613,12.4578313 C8.13305613,12.8594398 8.22834278,13.1807217 8.41891892,13.4216867 C8.60949506,13.6626518 8.92965818,13.8755011 9.37941788,14.060241 C9.82917758,14.2449808 10.5266758,14.4658622 11.4719335,14.7228916 C13.1794957,15.2048217 14.3610501,15.8273054 15.016632,16.5903614 C15.672214,17.3534175 16,18.3293113 16,19.5180723 C16,20.9156696 15.4968865,22.0120442 14.4906445,22.8072289 C13.4844025,23.6024136 11.9979308,24 10.031185,24 Z M21.9978495,24 C20.8623599,24 19.9121902,23.6882622 19.1473118,23.0647773 C18.3824335,22.4412924 18,21.5627587 18,20.4291498 C18,19.2793465 18.3982039,18.3684244 19.1946237,17.6963563 C19.9910434,17.0242881 21.1383438,16.6882591 22.6365591,16.6882591 L25.9483871,16.6882591 L25.9483871,16.3724696 C25.9483871,15.8866372 25.8655922,15.5060743 25.7,15.2307692 C25.5344078,14.9554642 25.2426544,14.7530371 24.8247312,14.6234818 C24.4068079,14.4939265 23.8114734,14.4291498 23.0387097,14.4291498 C21.7612839,14.4291498 20.5311887,14.6315769 19.3483871,15.0364372 L19.3483871,12.7287449 C19.9003612,12.5020232 20.5508923,12.3238873 21.3,12.194332 C22.0491077,12.0647767 22.8494581,12 23.7010753,12 C27.2337094,12 29,13.4817666 29,16.4453441 L29,23.757085 L26.2322581,23.757085 L26.0666667,22.7125506 C25.1519668,23.5708545 23.7957079,24 21.9978495,24 Z M22.9907407,22 C23.6543243,22 24.2445962,21.8867199 24.7615741,21.6601563 C25.278552,21.4335926 25.6913565,21.1328144 26,20.7578125 L26,19 L22.8287037,19 C21.6095618,19 21,19.5078074 21,20.5234375 C21,21.5078174 21.6635736,22 22.9907407,22 Z M33.3548387,28 C32.3918709,28 31.5997642,27.8769243 30.9784946,27.6307692 L30.9784946,25.4384615 C31.4133833,25.5923085 31.8870942,25.6692308 32.3996416,25.6692308 C33.0209111,25.6692308 33.5062707,25.5307706 33.8557348,25.2538462 C34.2051989,24.9769217 34.5663064,24.4769267 34.9390681,23.7538462 L30,13 L33.2849462,13 L36.5232975,20.4307692 L39.7383513,13 L43,13 L38.6433692,23.1769231 C37.9599727,24.7923158 37.2222262,25.999996 36.4301075,26.8 C35.6379889,27.600004 34.6129095,28 33.3548387,28 Z M53,8 L56.1132075,8 L56.1132075,13.6973294 C56.5897997,13.3333315 57.1470967,13.0445115 57.7851153,12.8308605 C58.4231339,12.6172096 59.1111074,12.5103858 59.8490566,12.5103858 C61.2788331,12.5103858 62.3280889,12.854596 62.9968553,13.5430267 C63.6656218,14.2314574 64,15.3115653 64,16.7833828 L64,24 L60.8867925,24 L60.8867925,16.9495549 C60.8867925,16.1740812 60.7330553,15.632049 60.4255765,15.3234421 C60.1180977,15.0148353 59.5646441,14.8605341 58.7651992,14.8605341 C58.288607,14.8605341 57.8120219,14.967358 57.3354298,15.1810089 C56.8588376,15.3946598 56.4514343,15.675567 56.1132075,16.0237389 L56.1132075,24 L53,24 L53,8 Z M69,8 L72,8 L72,10 L69,10 L69,8 Z M68.723301,15.3206751 L67,15.3206751 L67.2912621,13 L72,13 L72,24 L68.723301,24 L68.723301,15.3206751 Z M74,12.8210526 L74,9 L77,9 L77,12.8210526 L76.8666667,20 L74.1333333,20 L74,12.8210526 Z M74,22 L77,22 L77,24 L74,24 L74,22 Z" id="Sayhi!" fill="#FFFFFF" fill-rule="nonzero"></path>
    </g>
</svg>