<?xml version="1.0" encoding="UTF-8"?>
<svg width="32px" height="32px" viewBox="0 0 32 32" version="1.1" xmlns="http://www.w3.org/2000/svg" xmlns:xlink="http://www.w3.org/1999/xlink">
    <!-- Generator: Sketch 53 (72520) - https://sketchapp.com -->
    <title>i-vv456</title>
    <desc>Created with Sketch.</desc>
    <g id="Page-1" stroke="none" stroke-width="1" fill="none" fill-rule="evenodd">
        <g id="i-vv456" fill="#FFFFFF" fill-rule="nonzero">
            <path d="M29,23.106523 L29,8.951545 C29,5.689647 26.327294,3.03645 23.041412,3.03645 L8.782118,3.03645 C5.496235,3.03645 2.823529,5.689647 2.823529,8.951545 L2.823529,23.106523 C2.823529,26.36842 5.496235,29.021851 8.782118,29.021851 L23.041412,29.021851 C26.327294,29.021851 29,26.36842 29,23.106523 Z M23.041412,0.23353 C27.884235,0.23353 31.823529,4.14407 31.823529,8.951545 L31.823529,23.106523 C31.823529,27.913296 27.884235,31.824771 23.041412,31.824771 L8.782118,31.824771 C3.939294,31.824771 0,27.913997 0,23.106523 L0,8.951545 C0,4.14407 3.939294,0.23353 8.782118,0.23353 L23.041412,0.23353 Z M15.911765,21.365653 C18.876,21.365653 21.288706,18.972426 21.288706,16.029127 C21.288706,13.086528 18.876941,10.691434 15.911765,10.691434 C12.946588,10.691434 10.534824,13.086528 10.534824,16.029127 C10.534824,18.972426 12.947529,21.365653 15.911765,21.365653 Z M15.911765,7.889448 C20.432941,7.889448 24.112235,11.540952 24.112235,16.029127 C24.112235,20.518003 20.432941,24.169507 15.911765,24.169507 C11.389647,24.169507 7.711294,20.518003 7.711294,16.029127 C7.711294,11.540952 11.389647,7.889448 15.911765,7.889448 Z M24.455882,5.512666 C25.001765,5.512666 25.535882,5.730826 25.920118,6.113892 C26.306,6.495323 26.526706,7.026476 26.526706,7.568374 C26.526706,8.107702 26.306,8.638622 25.920118,9.021921 C25.534,9.403118 25.001765,9.623147 24.455882,9.623147 C23.911647,9.623147 23.376824,9.403118 22.993529,9.021921 C22.607647,8.638622 22.385059,8.108403 22.385059,7.568374 C22.385059,7.026476 22.606706,6.495323 22.993529,6.113892 C23.377765,5.730826 23.911647,5.512666 24.455882,5.512666 Z"></path>
        </g>
    </g>
</svg>