<?xml version="1.0" encoding="UTF-8"?>
<svg width="32px" height="32px" viewBox="0 0 32 32" version="1.1" xmlns="http://www.w3.org/2000/svg" xmlns:xlink="http://www.w3.org/1999/xlink">
    <!-- Generator: Sketch 53 (72520) - https://sketchapp.com -->
    <title>m-vv456</title>
    <desc>Created with Sketch.</desc>
    <g id="Page-1" stroke="none" stroke-width="1" fill="none" fill-rule="evenodd">
        <g id="m-vv456" transform="translate(0.000000, 3.000000)" fill="#FFFFFF" fill-rule="nonzero">
            <path d="M3.794614,5.099952 C3.834431,4.713413 3.684446,4.331202 3.391316,4.071106 L0.403347,0.529038 L0.403347,-4.8e-05 L9.68066,-4.8e-05 L16.851591,15.476154 L23.156079,-4.8e-05 L32.000049,-4.8e-05 L32.000049,0.529038 L29.445423,2.939375 C29.225087,3.10476 29.115896,3.376154 29.161576,3.644904 L29.161576,21.355 C29.115896,21.62375 29.225087,21.895385 29.445423,22.060529 L31.940446,24.470865 L31.940446,24.999952 L19.391316,24.999952 L19.391316,24.470865 L21.975744,22.001875 C22.229789,21.751875 22.229789,21.678558 22.229789,21.296346 L22.229789,6.981202 L15.043957,24.941298 L14.072965,24.941298 L5.706797,6.981202 L5.706797,19.018221 C5.636934,19.524231 5.807927,20.033846 6.169942,20.399712 L9.531163,24.412212 L9.531163,24.941298 L4.9e-05,24.941298 L4.9e-05,24.412212 L3.361515,20.399712 C3.720843,20.033125 3.881576,19.520144 3.794614,19.018221 L3.794614,5.099952 Z"></path>
        </g>
    </g>
</svg>