<?xml version="1.0" encoding="UTF-8"?>
<svg width="118px" height="32px" viewBox="0 0 118 32" version="1.1" xmlns="http://www.w3.org/2000/svg" xmlns:xlink="http://www.w3.org/1999/xlink">
    <!-- Generator: Sketch 54.1 (76490) - https://sketchapp.com -->
    <title>d-vv456 copy</title>
    <desc>Created with Sketch.</desc>
    <g id="Page-1" stroke="none" stroke-width="1" fill="none" fill-rule="evenodd">
        <path d="M22.154,17.752 C22.154,20.56 19.634,22.216 14.288,22.216 C7.88,22.216 5.918,19.822 5.918,17.446 L9.554,17.446 C9.554,18.616 11.156,19.498 14.45,19.498 C17.726,19.498 18.59,18.922 18.59,17.986 C18.59,16.942 17.942,16.618 14.9,16.276 C14.306,16.222 12.668,16.024 12.056,15.934 C7.736,15.448 6.08,14.17 6.08,11.884 C6.08,9.472 8.51,7.654 13.784,7.654 C19.508,7.654 21.704,9.904 21.704,12.244 L18.104,12.244 C18.104,11.056 16.754,10.372 13.568,10.372 C10.292,10.372 9.59,10.822 9.59,11.704 C9.59,12.622 10.31,12.91 13.784,13.324 C14.576,13.432 16.34,13.63 16.826,13.684 C20.498,14.062 22.154,15.394 22.154,17.752 Z M37.31,22 L34.286,22 C34.214,22 34.07,21.55 34.07,20.992 C33.422,21.622 31.676,22.162 28.85,22.162 C25.664,22.162 23.846,21.316 23.846,19.156 C23.846,17.338 25.142,15.772 30.29,15.718 C31.37,15.718 33.098,15.808 34.07,15.916 C34.07,15.736 34.052,15.484 33.98,15.214 C33.782,14.62 32.81,14.17 30.83,14.17 C27.842,14.17 27.554,14.764 27.554,15.466 L24.44,15.466 C24.44,13.396 26.24,11.812 30.686,11.812 C34.682,11.812 36.482,12.82 36.914,14.782 C37.04,15.286 37.112,16.438 37.094,17.212 C37.076,17.716 37.058,18.922 37.058,19.732 C37.058,20.632 37.148,21.676 37.31,22 Z M34.106,17.914 C33.368,17.806 32.18,17.698 30.812,17.698 C27.95,17.698 27.14,18.184 27.14,18.958 C27.14,19.588 27.878,19.966 29.84,19.966 C32.72,19.966 34.106,19.228 34.106,17.914 Z M53.42,12.1 L46.04,25.24 L42.476,25.24 L44.384,22 L38.606,12.1 L42.044,12.1 C42.044,12.1 46.148,19.228 46.148,19.282 C46.148,19.228 50.072,12.1 50.072,12.1 L53.42,12.1 Z M74.408,16.15 C74.408,21.658 74.444,21.964 74.588,22 L71.312,22 C71.186,21.874 71.186,21.478 71.186,16.798 C71.186,15.34 70.286,14.512 68.252,14.512 C66.47,14.512 65.012,15.484 65.012,16.888 L65.012,22 L61.79,22 L61.79,7.69 L64.922,7.69 L64.922,13.936 C65.624,12.532 67.334,11.83 69.692,11.83 C72.878,11.83 74.408,13.396 74.408,16.15 Z M80.816,10.948 L77.486,10.948 L77.486,8.158 L80.816,8.158 L80.816,10.948 Z M80.996,22 L77.738,22 C77.594,21.964 77.54,21.604 77.54,20.632 C77.54,18.436 77.54,12.1 77.54,12.1 L80.78,12.1 C80.78,12.1 80.78,19.012 80.78,20.614 C80.78,21.64 80.798,21.892 80.996,22 Z" id="Sayhi" fill="#FFFFFF" fill-rule="nonzero"></path>
        <g id="hand-w-copy" transform="translate(89.000000, 2.000000)">
            <g id="Group" transform="translate(0.000000, 2.483871)" fill-rule="nonzero">
                <path d="M7.13577586,14.803871 C6.8987069,15.0364516 6.65948276,14.7587097 6.65948276,14.7587097 C6.65948276,14.7587097 2.67672414,10.3374194 2.41810345,10.1387097 C2.05387931,9.86096774 1.2737069,9.42516129 0.493534483,10.2674194 C0.168103448,10.6174194 -0.362068966,11.3964516 0.622844828,12.6519355 C0.836206897,12.9229032 7.04094828,19.773871 7.40301724,20.1441935 C7.40301724,20.1441935 10.2693966,23.066129 12.0043103,24.1658065 C12.4849138,24.4706452 13.0258621,24.7935484 13.6573276,25.0193548 C14.2866379,25.2451613 14.9978448,25.4009677 15.7478448,25.4009677 C16.4978448,25.41 17.2758621,25.2587097 18.0107759,24.9764516 C18.7456897,24.6919355 19.4310345,24.2787097 20.0538793,23.8022581 C20.2068966,23.6803226 20.362069,23.5583871 20.5064655,23.4274194 L20.924569,23.066129 C21.2155172,22.8109677 21.487069,22.5422581 21.7478448,22.2690323 C22.2715517,21.7225806 22.7435345,21.1377419 23.1594828,20.5393548 C23.5732759,19.9387097 23.924569,19.3177419 24.2047414,18.6990323 C24.4849138,18.0803226 24.6810345,17.4593548 24.799569,16.8722581 C24.924569,16.2874194 24.9590517,15.7341935 24.9396552,15.2509677 C24.9353448,14.7677419 24.8426724,14.3545161 24.7672414,14.0248387 C24.6810345,13.6951613 24.5883621,13.4490323 24.5150862,13.2864516 C24.4439655,13.123871 24.4051724,13.0380645 24.4051724,13.0380645 L24.4051724,13.0380645 C24.3060345,12.7467742 24.2112069,12.4690323 24.1271552,12.2183871 C23.8900862,11.5116129 23.6163793,10.7190323 23.3318966,9.90387097 C23.2112069,9.5583871 23.1551724,9.40258065 23.1551724,9.40258065 L23.1573276,9.40935484 C22.112069,6.43548387 20.9892241,3.37129032 20.9892241,3.37129032 C20.8189655,2.8316129 20.1918103,2.64419355 19.7306034,2.99193548 C18.3987069,3.99451613 17.9913793,5.45774194 18.4612069,7.01806452 L19.6659483,10.4774194 C19.8362069,10.8635484 19.3663793,11.3106452 19.0517241,11.0419355 C18.0625,10.1974194 15.9698276,7.86935484 15.9698276,7.86935484 C15.0344828,6.93 9.75646552,1.26 9.40301724,0.914516129 C8.69181034,0.221290323 7.79525862,-0.135483871 7.11206897,0.390645161 C6.4137931,0.928064516 6.21982759,1.75903226 6.89439655,2.66677419 C7.07758621,2.91290323 12.4116379,8.81774194 12.4116379,8.81774194 C12.7219828,9.15870968 12.3556034,9.64193548 12.012931,9.31 C12.012931,9.31 5.37715517,2.05709677 5.07758621,1.7183871 C4.3987069,0.946129032 3.30818966,0.776774194 2.66163793,1.41354839 C2.03017241,2.03451613 2.04525862,3.05290323 2.73491379,3.85225806 C2.95474138,4.10516129 7.62931034,9.27612903 9.5,11.3941935 C9.625,11.5364516 9.72198276,11.726129 9.53663793,11.9045161 C9.53448276,11.9067742 9.34698276,12.1190323 9.10560345,11.8480645 C8.59698276,11.2790323 3.51724138,5.73322581 3.23491379,5.43290323 C2.5862069,4.74193548 1.71551724,4.41451613 1.01508621,5.08741935 C0.377155172,5.69935484 0.273706897,6.76741935 1.00646552,7.5216129 L7.15948276,14.3364516 C7.15948276,14.3364516 7.35991379,14.5848387 7.13577586,14.803871 Z" id="Path" fill="#FAC036"></path>
                <path d="M17.125,9.12258065 L17.6443966,9.70516129 C17.6443966,9.70516129 14.6724138,12.7106452 16.6982759,17.326129 C16.6982759,17.326129 16.9612069,17.9109677 16.6163793,18.0080645 C16.6163793,18.0080645 16.3146552,18.1841935 15.9698276,17.2854839 C15.9698276,17.2832258 13.924569,12.9003226 17.125,9.12258065 Z" id="Path" fill="#E48C15"></path>
            </g>
            <path d="M12.3448276,1.62580645 C12.3448276,1.62580645 13.5969828,1.82451613 14.7564655,3.12516129 C15.9159483,4.42806452 16.4525862,6.10129032 16.4525862,6.10129032" id="Path" stroke="#FFFFFF" stroke-width="0.903225806" stroke-linecap="round"></path>
            <path d="M15.3965517,0.112903226 C15.3965517,0.112903226 16.4461207,0.666129032 17.2564655,2.03225806 C18.0668103,3.3983871 18.262931,4.97903226 18.262931,4.97903226" id="Path" stroke="#FFFFFF" stroke-width="0.903225806" stroke-linecap="round"></path>
            <path d="M6.40301724,24.326129 C6.40301724,24.326129 5.14008621,24.4141935 3.74137931,23.4025806 C2.34267241,22.3909677 1.47413793,20.8780645 1.47413793,20.8780645" id="Path" stroke="#FFFFFF" stroke-width="0.903225806" stroke-linecap="round"></path>
            <path d="M5.50215517,26.5458065 C5.50215517,26.5458065 4.32974138,26.5977419 2.98491379,25.8187097 C1.64008621,25.0396774 0.734913793,23.7593548 0.734913793,23.7593548" id="Path" stroke="#FFFFFF" stroke-width="0.903225806" stroke-linecap="round"></path>
        </g>
    </g>
</svg>