<?xml version="1.0" encoding="UTF-8"?>
<svg width="32px" height="32px" viewBox="0 0 32 32" version="1.1" xmlns="http://www.w3.org/2000/svg" xmlns:xlink="http://www.w3.org/1999/xlink">
    <!-- Generator: Sketch 53 (72520) - https://sketchapp.com -->
    <title>t-vv456</title>
    <desc>Created with Sketch.</desc>
    <g id="Page-1" stroke="none" stroke-width="1" fill="none" fill-rule="evenodd">
        <g id="t-vv456" transform="translate(0.000000, 3.000000)" fill="#FFFFFF" fill-rule="nonzero">
            <path d="M31.51582,3.076465 C30.355662,3.598433 29.111243,3.952382 27.803419,4.110463 C29.138601,3.298353 30.160747,2.010236 30.645332,0.480289 C29.392866,1.232122 28.010114,1.778344 26.537114,2.07437 C25.357323,0.79619 23.679431,0.000162 21.818467,0.000162 C18.247875,0.000162 15.352985,2.94035 15.352985,6.56464 C15.352985,7.078763 15.409954,7.580791 15.52035,8.060656 C10.147887,7.786662 5.383987,5.172574 2.195566,1.200218 C1.638178,2.168316 1.321022,3.296327 1.321022,4.500435 C1.321022,6.778684 2.463349,8.788757 4.196343,9.964753 C3.136991,9.928992 2.140529,9.63277 1.268045,9.140941 L1.268045,9.222858 C1.268045,12.403109 3.497339,15.057209 6.453381,15.661224 C5.911764,15.809368 5.340794,15.891285 4.749805,15.891285 C4.332488,15.891285 3.928625,15.849444 3.532872,15.769227 C4.356048,18.379458 6.742793,20.277672 9.570866,20.329777 C7.359338,22.089849 4.570532,23.135877 1.541815,23.135877 C1.019895,23.135877 0.505829,23.103908 -0.00032,23.045984 C2.861226,24.912032 6.258466,26.000162 9.909843,26.000162 C21.802825,26.000162 28.303839,15.995234 28.303839,7.318761 L28.281953,6.468667 C29.552249,5.54849 30.651061,4.392433 31.51582,3.076465"></path>
        </g>
    </g>
</svg>