<?xml version="1.0" encoding="UTF-8"?>
<svg width="32px" height="26px" viewBox="0 0 32 26" version="1.1" xmlns="http://www.w3.org/2000/svg" xmlns:xlink="http://www.w3.org/1999/xlink">
    <!-- Generator: Sketch 51.2 (57519) - http://www.bohemiancoding.com/sketch -->
    <title>twitter</title>
    <desc>Created with Sketch.</desc>
    <defs></defs>
    <g id="Page-2" stroke="none" stroke-width="1" fill="none" fill-rule="evenodd">
        <g id="Desktop" transform="translate(-506.000000, -563.000000)" fill="#373C46">
            <g id="twitter" transform="translate(506.000000, 563.000000)">
                <path d="M31.5158198,3.07646469 C30.3556623,3.59843253 29.1112434,3.95238217 27.803419,4.11046311 C29.138601,3.29835332 30.1607471,2.01023555 30.6453316,0.48028923 C29.3928662,1.23212166 28.0101141,1.77834427 26.537114,2.07437012 C25.3573234,0.796189606 23.6794306,0.0001625 21.8184668,0.0001625 C18.2478752,0.0001625 15.3529854,2.94035033 15.3529854,6.5646403 C15.3529854,7.07876294 15.4099537,7.58079087 15.5203499,8.06065609 C10.147887,7.7866622 5.38398707,5.17257352 2.19556579,1.20021782 C1.63817784,2.16831649 1.32102223,3.29632665 1.32102223,4.50043532 C1.32102223,6.77868373 2.46334889,8.78875677 4.19634327,9.96475346 C3.13699075,9.92899238 2.14052864,9.6327704 1.26804495,9.14094124 L1.26804495,9.22285828 C1.26804495,12.4031095 3.49733926,15.0572087 6.45338145,15.6612244 C5.91176439,15.809368 5.34079417,15.8912851 4.74980459,15.8912851 C4.3324878,15.8912851 3.92862454,15.849444 3.53287202,15.7692267 C4.35604757,18.3794582 6.74279319,20.2776716 9.57086596,20.3297769 C7.35933803,22.0898493 4.57053153,23.1358771 1.54181455,23.1358771 C1.01989499,23.1358771 0.505828682,23.1039078 -0.00032,23.045984 C2.86122566,24.9120321 6.25846626,26.0001625 9.90984332,26.0001625 C21.8028246,26.0001625 28.3038387,15.9952341 28.3038387,7.31876092 L28.2819526,6.46866726 C29.5522487,5.54848974 30.6510606,4.39243296 31.5158198,3.07646469" id="Fill-1"></path>
            </g>
        </g>
    </g>
</svg>