<?xml version="1.0" encoding="UTF-8"?>
<svg width="163px" height="32px" viewBox="0 0 163 32" version="1.1" xmlns="http://www.w3.org/2000/svg" xmlns:xlink="http://www.w3.org/1999/xlink">
    <!-- Generator: Sketch 51.2 (57519) - http://www.bohemiancoding.com/sketch -->
    <title>Logo</title>
    <desc>Created with Sketch.</desc>
    <defs>
        <linearGradient x1="32.3539424%" y1="78.7964355%" x2="100%" y2="0%" id="linearGradient-1">
            <stop stop-color="#6C63FF" offset="0%"></stop>
            <stop stop-color="#F8A4D8" offset="100%"></stop>
        </linearGradient>
    </defs>
    <g id="Page-2" stroke="none" stroke-width="1" fill="none" fill-rule="evenodd">
        <g id="Desktop" transform="translate(-112.000000, -88.000000)" fill-rule="nonzero">
            <g id="Logo" transform="translate(112.000000, 88.000000)">
                <g id="logo-white">
                    <g id="vijay" fill="#373C46">
                        <path d="M7.50964286,18.4436364 L12.0503571,8.20363636 L14.9610714,8.20363636 L7.50964286,24.4363636 L0,8.20363636 L2.91071429,8.20363636 L7.50964286,18.4436364 Z M20.8989286,2.44363636 C20.8989286,3.49090909 20.0839286,4.30545455 19.0360714,4.30545455 C17.9882143,4.30545455 17.1732143,3.49090909 17.1732143,2.38545455 C17.1732143,1.39636364 17.9882143,0.523636364 19.0360714,0.523636364 C20.0839286,0.581818182 20.8989286,1.39636364 20.8989286,2.44363636 Z M20.3167857,23.4472727 L17.6971429,23.4472727 L17.6971429,8.20363636 L20.3167857,8.20363636 L20.3167857,23.4472727 Z M28.5832143,2.44363636 C28.5832143,3.49090909 27.7682143,4.30545455 26.7203571,4.30545455 C25.6725,4.30545455 24.8575,3.49090909 24.8575,2.44363636 C24.8575,1.45454545 25.6725,0.581818182 26.7203571,0.581818182 C27.7682143,0.581818182 28.5832143,1.39636364 28.5832143,2.44363636 Z M28.0010714,32 L25.3814286,32 L25.3814286,8.20363636 L28.0010714,8.20363636 L28.0010714,32 Z M47.2117857,8.20363636 L47.2117857,23.3890909 L44.5921429,23.3890909 L44.5921429,21.2363636 C43.1367857,22.9818182 41.4485714,23.7963636 39.3528571,23.7963636 C35.1614286,23.7963636 32.0178571,20.3636364 32.0178571,15.7090909 C32.0178571,11.1127273 35.1032143,7.79636364 39.2946429,7.79636364 C41.5067857,7.79636364 43.1367857,8.55272727 44.5921429,10.2981818 L44.5921429,8.14545455 L47.2117857,8.14545455 L47.2117857,8.20363636 Z M34.7539286,15.7090909 C34.7539286,19.0254545 36.8496429,21.4690909 39.7603571,21.4690909 C42.7875,21.4690909 44.8832143,19.1418182 44.8832143,15.7672727 C44.8832143,12.5090909 42.7875,10.1818182 39.8185714,10.1818182 C36.9078571,10.24 34.7539286,12.6254545 34.7539286,15.7090909 Z M50.0642857,8.20363636 L53.0914286,8.20363636 L58.5053571,19.0836364 L63.3953571,8.20363636 L66.3642857,8.20363636 L55.0707143,32 L52.16,32 L57.05,21.9927273 L50.0642857,8.20363636 Z" id="Combined-Shape"></path>
                    </g>
                    <g id="verma" transform="translate(71.603571, 7.563636)" fill="#373C46">
                        <polygon id="XMLID_5_" points="2.09571429 0.872727273 7.27678571 12.9745455 12.4578571 0.872727273 14.1460714 0.872727273 7.27678571 16.7563636 0.4075 0.872727273"></polygon>
                        <path d="M30.155,8.55272727 L17.2896429,8.55272727 C17.3478571,9.94909091 17.6389286,11.0545455 18.1046429,11.9272727 C18.6285714,12.8 19.3271429,13.4981818 20.2003571,14.08 C21.1317857,14.6036364 22.0632143,14.8945455 23.1110714,14.8945455 C24.5664286,14.8945455 25.8471429,14.4290909 26.895,13.44 C27.3607143,13.0327273 27.8846429,12.3345455 28.4085714,11.4618182 L29.6892857,12.2181818 C28.1757143,14.9527273 25.9635714,16.2909091 23.0528571,16.2909091 C20.7242857,16.2909091 18.8032143,15.4181818 17.4642857,13.6727273 C16.3,12.2181818 15.7178571,10.5309091 15.7178571,8.49454545 C15.7178571,6.22545455 16.4164286,4.36363636 17.8135714,2.79272727 C19.1525,1.33818182 20.8989286,0.581818182 23.0528571,0.581818182 C24.7992857,0.581818182 26.2546429,1.10545455 27.5353571,2.21090909 C29.2235714,3.66545455 30.0967857,5.76 30.155,8.55272727 Z M28.4667857,7.15636364 C28.2339286,6.05090909 27.8846429,5.12 27.3607143,4.36363636 C26.8367857,3.60727273 26.1964286,3.02545455 25.3814286,2.56 C24.5664286,2.15272727 23.7514286,1.92 22.9364286,1.92 C21.6557143,1.92 20.4914286,2.38545455 19.3853571,3.31636364 C18.2792857,4.24727273 17.5807143,5.52727273 17.3478571,7.15636364 L28.4667857,7.15636364 Z" id="XMLID_7_"></path>
                        <path d="M34.4046429,0.872727273 L35.86,0.872727273 L35.86,2.85090909 C36.6167857,1.33818182 37.7228571,0.581818182 39.1782143,0.581818182 C39.6439286,0.581818182 40.2260714,0.698181818 40.8082143,0.930909091 L39.9932143,2.21090909 C39.5857143,1.97818182 39.2364286,1.86181818 38.9453571,1.86181818 C38.0721429,1.86181818 37.3153571,2.26909091 36.675,3.08363636 C36.2675,3.60727273 36.0346429,4.30545455 35.9182143,5.17818182 C35.86,5.64363636 35.86,6.45818182 35.86,7.73818182 L35.86,15.7672727 L34.4046429,15.7672727 L34.4046429,0.872727273 Z" id="XMLID_10_"></path>
                        <path d="M44.01,0.872727273 L45.4653571,0.872727273 L45.4653571,2.73454545 C46.3385714,1.28 47.6775,0.523636364 49.3075,0.523636364 C51.1703571,0.523636364 52.5675,1.45454545 53.4989286,3.25818182 C53.9646429,2.32727273 54.5467857,1.62909091 55.3035714,1.16363636 C56.0021429,0.756363636 56.8753571,0.523636364 57.9232143,0.523636364 C59.5532143,0.523636364 60.7757143,1.04727273 61.6489286,2.15272727 C62.1146429,2.73454545 62.4057143,3.43272727 62.4639286,4.18909091 C62.5221429,4.71272727 62.5803571,5.29454545 62.5803571,5.99272727 L62.5803571,15.7672727 L61.125,15.7672727 L61.125,5.87636364 C61.125,4.94545455 61.0667857,4.30545455 60.9503571,3.89818182 C60.7175,3.2 60.2517857,2.67636364 59.5532143,2.32727273 C59.0875,2.09454545 58.5053571,1.97818182 57.9232143,1.97818182 C56.6425,1.97818182 55.6528571,2.44363636 54.9542857,3.43272727 C54.3721429,4.18909091 54.1392857,5.35272727 54.1392857,6.86545455 L54.1392857,15.8836364 L52.6839286,15.8836364 L52.6839286,6.22545455 C52.6839286,5.06181818 52.5092857,4.18909091 52.16,3.54909091 C51.5778571,2.50181818 50.6464286,1.97818182 49.3657143,1.97818182 C48.7253571,1.97818182 48.085,2.15272727 47.5028571,2.50181818 C46.9207143,2.85090909 46.455,3.31636364 46.2221429,3.89818182 C45.8146429,4.71272727 45.5817857,5.87636364 45.5817857,7.27272727 L45.5817857,15.9418182 L44.1264286,15.9418182 L44.1264286,0.872727273 L44.01,0.872727273 Z" id="XMLID_12_"></path>
                        <path d="M79.9282143,0.872727273 L81.3835714,0.872727273 L81.3835714,15.8254545 L79.9282143,15.8254545 L79.9282143,13.1490909 C79.2878571,14.1381818 78.4146429,14.8945455 77.425,15.4181818 C76.4353571,15.9418182 75.3292857,16.2327273 74.0485714,16.2327273 C71.7782143,16.2327273 69.9153571,15.36 68.46,13.6145455 C67.2957143,12.2181818 66.7135714,10.4145455 66.7135714,8.32 C66.7135714,5.64363636 67.5867857,3.66545455 69.275,2.21090909 C70.6139286,1.10545455 72.1857143,0.523636364 74.0485714,0.523636364 C76.4935714,0.523636364 78.4146429,1.51272727 79.9282143,3.43272727 L79.9282143,0.872727273 Z M74.0485714,1.92 C72.4185714,1.92 71.0214286,2.56 69.7989286,3.89818182 C68.7510714,5.00363636 68.2853571,6.51636364 68.2853571,8.32 C68.2853571,10.2981818 68.8675,11.8690909 70.0317857,13.0909091 C71.1378571,14.2545455 72.535,14.8363636 74.165,14.8363636 C76.0278571,14.8363636 77.5414286,14.08 78.6475,12.6254545 C79.5207143,11.4618182 79.9864286,10.0072727 79.9864286,8.14545455 C79.9864286,6.10909091 79.3460714,4.53818182 78.1235714,3.49090909 C76.9592857,2.44363636 75.5621429,1.92 74.0485714,1.92 Z" id="XMLID_14_"></path>
                    </g>
                    <ellipse id="circle" fill="url(#linearGradient-1)" cx="160.089286" cy="20.8872727" rx="2.91071429" ry="2.90909091"></ellipse>
                </g>
            </g>
        </g>
    </g>
</svg>