<svg width="24" height="24" viewBox="0 0 24 24" fill="none" xmlns="http://www.w3.org/2000/svg">
<path d="M14.9871 2.00928C17.0111 2.92791 18.3812 4.66781 18.3812 6.65888H5.01917C5.01917 4.66781 6.3893 2.92791 8.41478 2.00928L8.14655 1.61699L7.87977 1.23034L7.28533 0.361104C7.21283 0.253859 7.24328 0.109924 7.35202 0.0393695C7.46221 -0.0311855 7.6101 -0.00296051 7.68404 0.104279L8.32199 1.03561L8.59021 1.42649L8.86134 1.82442C9.72402 1.49846 10.6867 1.31642 11.7002 1.31642C12.7151 1.31642 13.6764 1.49846 14.5391 1.82442L14.8116 1.42649L15.7192 0.104279C15.7903 -0.00296051 15.9396 -0.0325955 16.0484 0.0393695C16.1586 0.109924 16.189 0.253859 16.1151 0.361104L15.5206 1.23034L15.2538 1.61699L14.9871 2.00928ZM8.83669 4.80045C9.2325 4.80045 9.55293 4.48859 9.55293 4.10336C9.55293 3.71813 9.2325 3.40769 8.83669 3.40769C8.44088 3.40769 8.12045 3.71813 8.12045 4.10336C8.12045 4.48859 8.44088 4.80045 8.83669 4.80045ZM14.5637 4.80045C14.9595 4.80045 15.2799 4.48859 15.2799 4.10336C15.2799 3.71813 14.9595 3.40769 14.5637 3.40769C14.1679 3.40769 13.8475 3.71813 13.8475 4.10336C13.8475 4.48859 14.1679 4.80045 14.5637 4.80045ZM5.12211 7.58739H18.3812V17.8066C18.3812 18.618 17.7056 19.2784 16.8705 19.2784H15.7787C15.8164 19.4012 15.8381 19.5296 15.8381 19.6651V22.6072C15.8381 23.3763 15.1958 24 14.4042 24C13.614 24 12.9732 23.3763 12.9732 22.6072V19.6651C12.9732 19.5296 12.9935 19.4012 13.0297 19.2784H10.3707C10.4069 19.4012 10.4287 19.5296 10.4287 19.6651V22.6072C10.4287 23.3763 9.78636 24 8.99618 24C8.206 24 7.5637 23.3763 7.5637 22.6072V19.6651C7.5637 19.5296 7.584 19.4012 7.6217 19.2784H6.53139C5.69626 19.2784 5.01917 18.618 5.01917 17.8066V7.58739H5.12211ZM2.63267 7.58739C3.42285 7.58739 4.0637 8.21111 4.0637 8.98015V14.9421C4.0637 15.7111 3.42285 16.3349 2.63267 16.3349C1.84104 16.3349 1.2002 15.7111 1.2002 14.9421V8.98015C1.2002 8.21111 1.84104 7.58739 2.63267 7.58739ZM20.7692 7.58739C21.5594 7.58739 22.2002 8.21111 22.2002 8.98015V14.9421C22.2002 15.7111 21.5594 16.3349 20.7692 16.3349C19.9775 16.3349 19.3367 15.7111 19.3367 14.9421V8.98015C19.3367 8.21111 19.9775 7.58739 20.7692 7.58739Z" fill="black"/>
</svg>
