<?xml version="1.0" encoding="utf-8"?>
<!-- Generator: Adobe Illustrator 23.1.1, SVG Export Plug-In . SVG Version: 6.00 Build 0)  -->
<svg version="1.1" id="Layer_1" xmlns="http://www.w3.org/2000/svg" xmlns:xlink="http://www.w3.org/1999/xlink" x="0px" y="0px"
	 viewBox="0 0 38 38" style="enable-background:new 0 0 38 38;" xml:space="preserve">
<path id="Icon" d="M33,14.6c0,0.1,0,0.1,0,0.2l-2.1,12.4c0,0.1,0.1,0.2,0.1,0.3c0,0.7-0.5,1.3-1.2,1.4l-0.1,0c-0.1,0-0.1,0-0.2,0
	h-0.8l-1.6,7.8C27,37.5,26.4,38,25.6,38c0,0-0.1,0-0.1,0h-13c0,0-0.1,0-0.1,0c-0.7,0-1.4-0.5-1.5-1.2L9.3,29H8.5c-0.1,0-0.1,0-0.2,0
	l-0.1,0C7.5,28.8,7,28.2,7,27.5c0-0.1,0-0.2,0.1-0.3L5,14.8c0-0.1,0-0.1,0-0.2c0,0,0-0.1,0-0.1c0,0,0-0.1,0-0.1c0-0.1,0-0.2,0.1-0.3
	c0-0.1,0.1-0.2,0.1-0.2c0.1-0.1,0.1-0.2,0.2-0.3c0,0,0.1-0.1,0.1-0.1c0.1-0.1,0.2-0.2,0.3-0.2L6,13.1c0.1,0,0.1-0.1,0.2-0.1
	c0.1,0,0.1,0,0.2,0c0.1,0,0.1,0,0.2,0h0.2L6,6.8c0,0,0-0.1,0-0.1c0,0,0-0.1,0-0.2c0-0.1,0-0.1,0-0.2c0-0.1,0-0.1,0-0.2
	c0-0.1,0.1-0.3,0.2-0.4c0,0,0-0.1,0.1-0.1c0.1-0.1,0.2-0.2,0.4-0.3c0,0,0.1,0,0.1-0.1C6.9,5.1,7,5.1,7.2,5.1c0,0,0.1,0,0.1-0.1
	c0,0,0.1,0,0.1,0s0.1,0,0.1,0h0.6c0-0.1,0.1-0.3,0.1-0.4l1.9-3.5c0.1-0.5,0.5-0.8,1-1c0.1,0,0.2,0,0.3-0.1c0,0,0.1,0,0.1,0h15
	c0,0,0.1,0,0.1,0c0.1,0,0.2,0,0.3,0.1c0.5,0.1,0.8,0.5,1,1l1.9,3.5c0.1,0.1,0.1,0.3,0.1,0.4h0.6c0,0,0.1,0,0.1,0s0.1,0,0.1,0
	c0,0,0.1,0,0.1,0.1c0.1,0,0.3,0.1,0.4,0.2c0,0,0.1,0,0.1,0.1c0.1,0.1,0.3,0.2,0.4,0.3c0,0,0.1,0.1,0.1,0.1c0.1,0.1,0.1,0.2,0.2,0.4
	c0,0.1,0,0.1,0,0.2c0,0.1,0,0.1,0,0.2c0,0.1,0,0.1,0,0.2c0,0,0,0.1,0,0.1L31.3,13h0.2c0.1,0,0.1,0,0.2,0c0.1,0,0.1,0,0.2,0
	c0.1,0,0.1,0,0.2,0.1l0.2,0.1c0.1,0.1,0.2,0.1,0.3,0.2c0,0,0.1,0.1,0.1,0.1c0.1,0.1,0.1,0.2,0.2,0.3c0,0.1,0.1,0.1,0.1,0.2
	c0,0.1,0.1,0.2,0.1,0.3c0,0,0,0.1,0,0.1C33,14.5,33,14.6,33,14.6z M13.7,35h10.6l1.2-6H12.5L13.7,35z M8.1,16l1.7,10h18.4l1.7-10
	H8.1L8.1,16z M9.3,8l0.5,5h18.3l0.5-5H9.3z M25.5,3h-13l-1.1,2h15.2L25.5,3z"/>
</svg>
