<?xml version="1.0" encoding="UTF-8"?>
<svg width="32px" height="32px" viewBox="0 0 32 32" version="1.1" xmlns="http://www.w3.org/2000/svg" xmlns:xlink="http://www.w3.org/1999/xlink">
    <!-- Generator: Sketch 51.2 (57519) - http://www.bohemiancoding.com/sketch -->
    <title>dribbble</title>
    <desc>Created with Sketch.</desc>
    <defs></defs>
    <g id="Page-2" stroke="none" stroke-width="1" fill="none" fill-rule="evenodd">
        <g id="Desktop" transform="translate(-166.000000, -566.000000)" fill="#373C46">
            <g id="dribbble" transform="translate(166.000000, 566.000000)">
                <path d="M29.4440843,15.8048 C29.3052353,15.7769937 29.1313778,15.7457231 28.9234234,15.7111704 C28.7151043,15.6766177 28.4615658,15.6349538 28.1630815,15.5861789 C27.865053,15.5376775 27.5313778,15.4924581 27.163788,15.4507943 C26.7959248,15.4091305 26.4038108,15.3710222 25.986808,15.3364695 C25.5705345,15.3015521 25.1264547,15.2742017 24.6545687,15.2531419 C24.1819533,15.2325379 23.7033208,15.2217801 23.2172125,15.2217801 C22.7318336,15.2217801 22.22111,15.2360934 21.6869561,15.2634439 C21.1528023,15.2908855 20.6356969,15.3400251 20.1360046,15.4094952 C20.0943407,15.3396604 20.0423749,15.2254268 19.980016,15.0655179 C19.9173835,14.9059738 19.8721641,14.7845379 19.8450872,14.7012103 C19.5807909,14.1181903 19.2756513,13.4586803 18.9280274,12.7228627 C19.8860217,12.3340308 20.7991613,11.8863954 21.6669903,11.379592 C22.5345459,10.8727886 23.2278792,10.4219624 23.7489048,10.0262929 C24.2695658,9.63025869 24.7624205,9.21042963 25.2271954,8.76634986 C25.6926997,8.32227009 25.9942838,8.01348376 26.1334974,7.83971738 C26.2724376,7.665951 26.4041755,7.49601368 26.529167,7.32972308 L26.5498621,7.30875442 C28.5765288,9.77950085 29.6114689,12.6253128 29.6524034,15.8460991 L29.4440843,15.8048 Z M27.4871613,23.3738484 C26.459788,24.9636376 25.1755943,26.2791932 23.6349447,27.3201504 C23.0655088,24.1270792 22.1773493,20.8713755 20.9693721,17.5537687 C23.7318564,17.1231818 26.5708308,17.3247544 29.4861128,18.1573926 C29.1805174,20.0452103 28.514261,21.7845151 27.4871613,23.3738484 Z M15.9921413,29.6520479 C12.7439134,29.6520479 9.84258006,28.6110906 7.28805014,26.5288114 L7.60039202,26.7578256 C8.08613561,25.6887886 8.80125812,24.6613242 9.74539487,23.6758883 C10.6894405,22.6904524 11.5986598,21.8952843 12.4732353,21.2912957 C13.3475373,20.6879453 14.2984205,20.1188741 15.3257937,19.5836262 C16.3532581,19.0494724 17.0537937,18.7089595 17.4291328,18.5637288 C17.8041071,18.4181333 18.1025003,18.3033527 18.3244034,18.2196604 L18.3660672,18.1990564 L18.4077311,18.1990564 C19.7677766,21.7667373 20.7399932,25.2235578 21.3230131,28.5690621 C19.601486,29.2912957 17.825167,29.6520479 15.9921413,29.6520479 Z M3.24857436,20.9169595 C2.63747464,19.3553413 2.33224387,17.7135863 2.33224387,15.9921504 C2.33224387,15.7976889 2.33935499,15.6516376 2.35293903,15.5548171 C7.37858006,15.5548171 12.0502154,14.9095293 16.3674803,13.6182245 C16.8116513,14.4785778 17.1795145,15.2492217 17.4711613,15.9297915 C17.4149105,15.957233 17.32511,15.9885949 17.2001185,16.0231476 C17.0747624,16.0579738 16.985053,16.081951 16.9288023,16.0960821 L16.1584319,16.3668513 C15.6310245,16.5612217 14.9401527,16.8945322 14.0865459,17.3660536 C13.2328479,17.8386689 12.3272752,18.4006291 11.3692809,19.0530279 C10.4112866,19.7058826 9.42238632,20.5701561 8.40203305,21.6463043 C7.38177094,22.7219054 6.52451738,23.877461 5.8304547,25.1128798 C4.71975385,23.877461 3.8593094,22.4782131 3.24857436,20.9169595 Z M5.28955442,7.51670883 C6.6221584,5.83721026 8.24604444,4.54590541 10.162033,3.64379715 C11.8831954,5.93439544 13.5769162,8.55803077 15.2428308,11.5148855 C11.0223863,12.6256775 6.81661994,13.1808912 2.6238906,13.1805267 C3.06833504,11.0847544 3.95685926,9.19620741 5.28955442,7.51670883 Z M15.9921413,2.33225299 C19.4348308,2.33225299 22.4405516,3.47039544 25.0085744,5.74713618 L24.7481983,6.1110792 C24.6442667,6.25703932 24.3838906,6.53801937 23.9676171,6.95474872 C23.5512524,7.37102222 23.096506,7.76669174 22.6036513,8.1416661 C22.1107054,8.51636695 21.4412581,8.94330712 20.594033,9.42230427 C19.7471726,9.90130142 18.8450644,10.3212217 17.8870701,10.6822473 C16.2906256,7.73888547 14.5833208,5.08753504 12.7646085,2.72783134 C13.8614519,2.46399088 14.9373265,2.33225299 15.9921413,2.33225299 Z M29.8397538,7.96470883 C28.4098735,5.51456638 26.47009,3.57478291 24.0199476,2.14490256 C21.5694405,0.71465755 18.894204,-9.11680912e-06 15.992506,-9.11680912e-06 C13.0911726,-9.11680912e-06 10.4152068,0.71465755 7.96506439,2.14490256 C5.51492194,3.57441823 3.57513846,5.51456638 2.14489345,7.96470883 C0.714739601,10.4148513 -1.82336182e-05,13.0907259 -1.82336182e-05,15.9921504 C-1.82336182e-05,18.8934838 0.715104274,21.5690849 2.14489345,24.0195009 C3.57477379,26.4693698 5.51455726,28.4091533 7.96469972,29.8393071 C10.4152068,31.2691875 13.090808,31.98431 15.9921413,31.98431 C18.8934746,31.98431 21.5694405,31.2691875 24.0199476,29.8393071 C26.4697254,28.4098826 28.4095088,26.4693698 29.8397538,24.0195009 C31.2692695,21.5690849 31.9839362,18.8931191 31.9839362,15.9921504 C31.9843009,13.0907259 31.2692695,10.4144866 29.8397538,7.96470883 Z" id="Fill-1"></path>
            </g>
        </g>
    </g>
</svg>