<?xml version="1.0" encoding="UTF-8"?>
<svg width="32px" height="32px" viewBox="0 0 32 32" version="1.1" xmlns="http://www.w3.org/2000/svg" xmlns:xlink="http://www.w3.org/1999/xlink">
    <!-- Generator: Sketch 51.2 (57519) - http://www.bohemiancoding.com/sketch -->
    <title>insta</title>
    <desc>Created with Sketch.</desc>
    <defs>
        <polygon id="path-1" points="0 0.175182482 31.8235294 0.175182482 31.8235294 31.7663766 0 31.7663766"></polygon>
    </defs>
    <g id="Page-2" stroke="none" stroke-width="1" fill="none" fill-rule="evenodd">
        <g id="Desktop" transform="translate(-336.000000, -566.000000)">
            <g id="insta" transform="translate(336.000000, 566.000000)">
                <g id="Group-3" transform="translate(0.000000, 0.058394)">
                    <mask id="mask-2" fill="white">
                        <use xlink:href="#path-1"></use>
                    </mask>
                    <g id="Clip-2"></g>
                    <path d="M29,23.0481285 C29,26.3100263 26.3272941,28.9634569 23.0414118,28.9634569 L8.78211765,28.9634569 C5.49623529,28.9634569 2.82352941,26.3100263 2.82352941,23.0481285 L2.82352941,8.89315036 C2.82352941,5.63125255 5.49623529,2.97805547 8.78211765,2.97805547 L23.0414118,2.97805547 C26.3272941,2.97805547 29,5.63125255 29,8.89315036 L29,23.0481285 Z M23.0414118,0.175135766 L8.78211765,0.175135766 C3.93929412,0.175135766 0,4.08567591 0,8.89315036 L0,23.0481285 C0,27.8556029 3.93929412,31.7663766 8.78211765,31.7663766 L23.0414118,31.7663766 C27.8842353,31.7663766 31.8235294,27.8549022 31.8235294,23.0481285 L31.8235294,8.89315036 C31.8235294,4.08567591 27.8842353,0.175135766 23.0414118,0.175135766 Z" id="Fill-1" fill="#373C46" mask="url(#mask-2)"></path>
                </g>
                <path d="M15.9117647,21.3656526 C12.9475294,21.3656526 10.5348235,18.9724263 10.5348235,16.029127 C10.5348235,13.0865285 12.9465882,10.6914336 15.9117647,10.6914336 C18.8769412,10.6914336 21.2887059,13.0865285 21.2887059,16.029127 C21.2887059,18.9724263 18.876,21.3656526 15.9117647,21.3656526 M15.9117647,7.88944818 C11.3896471,7.88944818 7.71129412,11.5409518 7.71129412,16.029127 C7.71129412,20.5180029 11.3896471,24.1695066 15.9117647,24.1695066 C20.4329412,24.1695066 24.1122353,20.5180029 24.1122353,16.029127 C24.1122353,11.5409518 20.4329412,7.88944818 15.9117647,7.88944818" id="Fill-4" fill="#373C46"></path>
                <path d="M24.4558824,5.51266569 C23.9116471,5.51266569 23.3777647,5.73082628 22.9935294,6.11389197 C22.6067059,6.49532263 22.3850588,7.02647591 22.3850588,7.56837372 C22.3850588,8.10840292 22.6076471,8.6386219 22.9935294,9.02192117 C23.3768235,9.40311825 23.9116471,9.62314745 24.4558824,9.62314745 C25.0017647,9.62314745 25.534,9.40311825 25.9201176,9.02192117 C26.306,8.6386219 26.5267059,8.10770219 26.5267059,7.56837372 C26.5267059,7.02647591 26.306,6.49532263 25.9201176,6.11389197 C25.5358824,5.73082628 25.0017647,5.51266569 24.4558824,5.51266569" id="Fill-6" fill="#373C46"></path>
            </g>
        </g>
    </g>
</svg>