<?xml version="1.0" encoding="UTF-8"?>
<svg width="32px" height="25px" viewBox="0 0 32 25" version="1.1" xmlns="http://www.w3.org/2000/svg" xmlns:xlink="http://www.w3.org/1999/xlink">
    <!-- Generator: Sketch 51.2 (57519) - http://www.bohemiancoding.com/sketch -->
    <title>medium</title>
    <desc>Created with Sketch.</desc>
    <defs>
        <polygon id="path-1" points="4.88549618e-05 0 32 0 32 24.9999519 4.88549618e-05 24.9999519"></polygon>
    </defs>
    <g id="Page-2" stroke="none" stroke-width="1" fill="none" fill-rule="evenodd">
        <g id="Desktop" transform="translate(-827.000000, -566.000000)">
            <g id="medium" transform="translate(827.000000, 566.000000)">
                <mask id="mask-2" fill="white">
                    <use xlink:href="#path-1"></use>
                </mask>
                <g id="Clip-2"></g>
                <path d="M3.79461374,5.09995192 C3.83443053,4.71341346 3.6844458,4.33120192 3.39131603,4.07110577 L0.403346565,0.529038462 L0.403346565,-4.80769231e-05 L9.68065954,-4.80769231e-05 L16.8515908,15.4761538 L23.1560794,-4.80769231e-05 L32.0000489,-4.80769231e-05 L32.0000489,0.529038462 L29.4454229,2.939375 C29.225087,3.10475962 29.1158962,3.37615385 29.1615756,3.64490385 L29.1615756,21.355 C29.1158962,21.62375 29.225087,21.8953846 29.4454229,22.0605288 L31.9404458,24.4708654 L31.9404458,24.9999519 L19.391316,24.9999519 L19.391316,24.4708654 L21.9757435,22.001875 C22.2297893,21.751875 22.2297893,21.6785577 22.2297893,21.2963462 L22.2297893,6.98120192 L15.0439573,24.9412981 L14.0729649,24.9412981 L5.70679695,6.98120192 L5.70679695,19.0182212 C5.63693435,19.5242308 5.80792672,20.0338462 6.16994198,20.3997115 L9.53116336,24.4122115 L9.53116336,24.9412981 L4.88549618e-05,24.9412981 L4.88549618e-05,24.4122115 L3.3615145,20.3997115 C3.72084275,20.033125 3.88157557,19.5201442 3.79461374,19.0182212 L3.79461374,5.09995192 Z" id="Fill-1" fill="#373C46" mask="url(#mask-2)"></path>
            </g>
        </g>
    </g>
</svg>